<?xml version="1.0" encoding="UTF-8"?>
<svg version="1.1" xmlns="http://www.w3.org/2000/svg" width="326" height="327">
<path d="M0 0 C0.86786133 0.24137695 1.73572266 0.48275391 2.62988281 0.73144531 C36.14072934 10.4015444 67.14700693 29.99725386 88.375 58 C88.93590332 58.73911621 89.49680664 59.47823242 90.07470703 60.23974609 C117.09706706 96.4009987 126.59631016 140.06272215 121.33984375 184.59765625 C120.55869966 189.82649311 119.41787805 194.90898851 118 200 C117.75862305 200.86786133 117.51724609 201.73572266 117.26855469 202.62988281 C107.5984556 236.14072934 88.00274614 267.14700693 60 288.375 C59.26088379 288.93590332 58.52176758 289.49680664 57.76025391 290.07470703 C21.5990013 317.09706706 -22.06272215 326.59631016 -66.59765625 321.33984375 C-71.82649311 320.55869966 -76.90898851 319.41787805 -82 318 C-82.86786133 317.75862305 -83.73572266 317.51724609 -84.62988281 317.26855469 C-118.14072934 307.5984556 -149.14700693 288.00274614 -170.375 260 C-170.93590332 259.26088379 -171.49680664 258.52176758 -172.07470703 257.76025391 C-199.09706706 221.5990013 -208.59631016 177.93727785 -203.33984375 133.40234375 C-202.55869966 128.17350689 -201.41787805 123.09101149 -200 118 C-199.75862305 117.13213867 -199.51724609 116.26427734 -199.26855469 115.37011719 C-189.5984556 81.85927066 -170.00274614 50.85299307 -142 29.625 C-141.26088379 29.06409668 -140.52176758 28.50319336 -139.76025391 27.92529297 C-100.75298205 -1.22382295 -47.43233386 -13.21019707 0 0 Z " fill="#FEFEFE" transform="translate(204,4)"/>
<path d="M0 0 C0.86786133 0.24137695 1.73572266 0.48275391 2.62988281 0.73144531 C36.14072934 10.4015444 67.14700693 29.99725386 88.375 58 C88.93590332 58.73911621 89.49680664 59.47823242 90.07470703 60.23974609 C117.09706706 96.4009987 126.59631016 140.06272215 121.33984375 184.59765625 C120.55869966 189.82649311 119.41787805 194.90898851 118 200 C117.75862305 200.86786133 117.51724609 201.73572266 117.26855469 202.62988281 C107.5984556 236.14072934 88.00274614 267.14700693 60 288.375 C59.26088379 288.93590332 58.52176758 289.49680664 57.76025391 290.07470703 C21.5990013 317.09706706 -22.06272215 326.59631016 -66.59765625 321.33984375 C-71.82649311 320.55869966 -76.90898851 319.41787805 -82 318 C-82.86786133 317.75862305 -83.73572266 317.51724609 -84.62988281 317.26855469 C-118.14072934 307.5984556 -149.14700693 288.00274614 -170.375 260 C-170.93590332 259.26088379 -171.49680664 258.52176758 -172.07470703 257.76025391 C-199.09706706 221.5990013 -208.59631016 177.93727785 -203.33984375 133.40234375 C-202.55869966 128.17350689 -201.41787805 123.09101149 -200 118 C-199.75862305 117.13213867 -199.51724609 116.26427734 -199.26855469 115.37011719 C-189.5984556 81.85927066 -170.00274614 50.85299307 -142 29.625 C-141.26088379 29.06409668 -140.52176758 28.50319336 -139.76025391 27.92529297 C-100.75298205 -1.22382295 -47.43233386 -13.21019707 0 0 Z M-149.83203125 60.85546875 C-178.62661539 92.48230707 -189.76033446 132.39122077 -188.18896484 174.35595703 C-187.82068196 181.45801178 -186.79309508 188.1123601 -185 195 C-184.70996094 196.18464844 -184.41992188 197.36929688 -184.12109375 198.58984375 C-178.90143189 218.35467213 -170.01742396 237.1960987 -157 253 C-156.5369043 253.56847656 -156.07380859 254.13695312 -155.59667969 254.72265625 C-141.6433341 271.77981535 -125.39591394 283.74244399 -106 294 C-104.63488281 294.72509766 -104.63488281 294.72509766 -103.2421875 295.46484375 C-85.82240831 304.01091097 -65.26364329 308.19314583 -46 309 C-45.15953125 309.04125 -44.3190625 309.0825 -43.453125 309.125 C-4.49464653 310.09291251 34.03072392 295.15338755 62.3684082 268.54272461 C73.04459983 258.32552729 73.04459983 258.32552729 81 246 C76.53952693 247.56328961 72.75638679 249.94973691 68.8125 252.5 C60.07483108 258.04724338 51.11456312 263.10192015 42 268 C41.00299072 268.54551514 41.00299072 268.54551514 39.98583984 269.10205078 C4.45796832 288.45085641 -40.10305912 294.76404527 -79.15576172 283.37109375 C-103.14973208 275.76949441 -125.45021061 260.86917533 -141 241 C-141 240.34 -141 239.68 -141 239 C-114.27 238.505 -114.27 238.505 -87 238 C-89.51431715 235.98854628 -92.02909562 233.97736025 -94.5703125 232 C-95.41335937 231.34 -96.25640625 230.68 -97.125 230 C-97.97320312 229.34 -98.82140625 228.68 -99.6953125 228 C-101.86355844 226.11840353 -103.50342037 224.44575261 -105 222 C-104.26314796 218.40784629 -103.01103832 217.0102682 -100.3125 214.5 C-99.549375 213.675 -98.78625 212.85 -98 212 C-98.04979584 209.239835 -98.04979584 209.239835 -99 207 C-100.98 206.67 -102.96 206.34 -105 206 C-105.33 208.31 -105.66 210.62 -106 213 C-106.66 213 -107.32 213 -108 213 C-106.82766663 178.3256776 -105.54352878 143.65991396 -104 109 C-100.71574671 112.73587711 -99.27913139 117.01537227 -97.56640625 121.60546875 C-97.24719711 122.44410965 -96.92798798 123.28275055 -96.59910583 124.14680481 C-95.5808297 126.82477948 -94.57119979 129.50590522 -93.5625 132.1875 C-92.55603405 134.85070799 -91.54768523 137.51317685 -90.53660583 140.17463684 C-89.90915693 141.82754822 -89.28450368 143.48152472 -88.66322327 145.13676453 C-86.87991951 149.84934196 -84.95080531 154.4647498 -82.86367798 159.05119324 C-81.69252557 161.69378666 -80.74445895 164.38982546 -79.8125 167.125 C-78.20852111 171.73517833 -76.50503455 176.27718275 -74.6796875 180.8046875 C-74.06516724 182.33585205 -74.06516724 182.33585205 -73.43823242 183.89794922 C-72.61614842 185.9368716 -71.78581255 187.97248982 -70.9465332 190.00439453 C-67.4115957 198.80096495 -67.4115957 198.80096495 -68 204 C-67.01 204.33 -66.02 204.66 -65 205 C-65 205.99 -65 206.98 -65 208 C-64.01 208.33 -63.02 208.66 -62 209 C-61.34 208.67 -60.68 208.34 -60 208 C-60 208.66 -60 209.32 -60 210 C-59.34 210.33 -58.68 210.66 -58 211 C-59.32 211.99 -60.64 212.98 -62 214 C-59.03 221.26 -56.06 228.52 -53 236 C-50.36 236 -47.72 236 -45 236 C-42.69 230.39 -40.38 224.78 -38 219 C-35.49792969 219.2165625 -35.49792969 219.2165625 -32.9453125 219.4375 C-19.92858672 220.5246495 -7.06195369 221.30376636 6 221 C3.79336518 225.84761733 1.72553942 229.77853131 -2.25 233.4375 C-3.51097661 234.61333768 -4.76446724 235.79745476 -6 237 C-6 237.33 -6 237.66 -6 238 C25.68 238.495 25.68 238.495 58 239 C58 238.34 58 237.68 58 237 C57.175 236.505 56.35 236.01 55.5 235.5 C50.67624129 232.42614899 46.92032395 227.87185309 44 223 C43.26953125 219.17578125 43.26953125 219.17578125 43 216 C43.54301758 215.83918945 44.08603516 215.67837891 44.64550781 215.51269531 C59.90329684 211.00915585 59.90329684 211.00915585 75 206 C76.08796875 205.63390625 77.1759375 205.2678125 78.296875 204.890625 C91.0891165 200.35144253 99.40277198 193.60249402 105.3203125 181.2421875 C114.30857538 157.16872817 106.02371837 124.45059058 95.79345703 101.83618164 C94.88016293 99.88159573 93.9462198 97.93884687 93 96 C92.52989502 95.03102783 92.52989502 95.03102783 92.05029297 94.04248047 C85.55686404 80.84104566 77.09657855 69.70168172 67 59 C66.2884375 58.21238281 65.576875 57.42476562 64.84375 56.61328125 C53.63714871 44.69667269 39.80888591 35.57604366 24.94580078 28.88525391 C23.00683175 28.00310815 21.09592894 27.0750026 19.18359375 26.13671875 C-37.73862374 -1.11519895 -106.8199703 17.29314689 -149.83203125 60.85546875 Z " fill="#FEFEFE" transform="translate(204,4)"/>
<path d="M0 0 C1.05574219 0.74378906 2.11148438 1.48757812 3.19921875 2.25390625 C35.65389525 25.67571533 54.36564007 61.08112414 61 100 C63.5312772 116.79080543 64.09920916 134.43512116 54.25 148.9375 C40.90308223 165.70608215 16.65787053 169.41254248 -3 175 C-2.34993333 182.65948115 0.81454853 186.5689716 6 192 C7.9605163 193.60704795 9.77153224 194.77434273 12 196 C11.67 196.66 11.34 197.32 11 198 C-9.79 197.67 -30.58 197.34 -52 197 C-49.25 193.79166667 -46.5 190.58333333 -43.75 187.375 C-41.98089279 184.97406879 -41.05025117 182.77303161 -40 180 C-41.11375 180.01160156 -42.2275 180.02320313 -43.375 180.03515625 C-57.00411176 180.1328937 -70.44241359 179.48286101 -84 178 C-86.31 183.61 -88.62 189.22 -91 195 C-93.64 195 -96.28 195 -99 195 C-101.97 187.41 -104.94 179.82 -108 172 C-106.68 171.34 -105.36 170.68 -104 170 C-104.66 169.67 -105.32 169.34 -106 169 C-106 168.34 -106 167.68 -106 167 C-106.99 167.33 -107.98 167.66 -109 168 C-109.66 167.67 -110.32 167.34 -111 167 C-111 166.01 -111 165.02 -111 164 C-111.99 163.67 -112.98 163.34 -114 163 C-114.06767578 161.23076172 -114.06767578 161.23076172 -114.13671875 159.42578125 C-114.93729416 152.25425198 -118.04347188 145.77891115 -120.8125 139.1875 C-121.88717115 136.59997045 -122.95499943 134.00968466 -124.01953125 131.41796875 C-124.28057648 130.78535126 -124.5416217 130.15273376 -124.81057739 129.50094604 C-126.39358897 125.62312921 -127.79445634 121.72555509 -129.07421875 117.73828125 C-130.60681807 112.98128306 -132.51771007 108.55539679 -134.63916016 104.03564453 C-136.23623996 100.4730162 -137.65184069 96.86179346 -139.04296875 93.21484375 C-139.30054962 92.54031158 -139.55813049 91.86577942 -139.82351685 91.17080688 C-140.88601645 88.37940323 -141.94297926 85.58594098 -142.99682617 82.79125977 C-143.77849429 80.72236114 -144.5666145 78.65601086 -145.35546875 76.58984375 C-145.81590576 75.37159912 -146.27634277 74.15335449 -146.75073242 72.89819336 C-147.81466606 69.93903591 -147.81466606 69.93903591 -150 68 C-150.37679633 76.53953636 -150.75078947 85.07918979 -151.12164211 93.61898613 C-151.29410958 97.58865793 -151.46738102 101.55829045 -151.64282227 105.52783203 C-152.62114758 127.68112476 -153.41340376 149.8327805 -154 172 C-153.34 172 -152.68 172 -152 172 C-151.67 169.69 -151.34 167.38 -151 165 C-149.02 165.33 -147.04 165.66 -145 166 C-144.1875 168.1875 -144.1875 168.1875 -144 171 C-146.3125 173.5 -146.3125 173.5 -149 176 C-150.319018 178.66533035 -150.319018 178.66533035 -151 181 C-146.9206365 186.26023188 -142.72119567 189.84520832 -137.171875 193.51953125 C-135 195 -135 195 -133 197 C-150.82 197 -168.64 197 -187 197 C-185.68 195.35 -184.36 193.7 -183 192 C-182.32535367 189.62282537 -182.32535367 189.62282537 -182.125 187.1875 C-181.05484087 180.78565518 -177.87501488 176.39222936 -172.9296875 172.27734375 C-171 171 -171 171 -169 171 C-167.05810244 152.07992201 -165.49062666 133.13573223 -164.08483887 114.16873169 C-163.90478488 111.74318819 -163.72277084 109.3177893 -163.53869629 106.89254761 C-159.95712006 74.95869841 -159.95712006 74.95869841 -171.9609375 46.3203125 C-174.44279964 43.49612454 -176.99769636 41.25172773 -180 39 C-180 38.67 -180 38.34 -180 38 C-165.15 38 -150.3 38 -135 38 C-130.71 47.9 -126.42 57.8 -122 68 C-121.34 68 -120.68 68 -120 68 C-119.50371094 66.94941406 -119.00742188 65.89882812 -118.49609375 64.81640625 C-114.69289145 56.90163391 -110.9452297 49.55884285 -105 43 C-104.45859375 42.39027344 -103.9171875 41.78054687 -103.359375 41.15234375 C-95.69651581 33.00607989 -83.49022074 23.43294803 -71.859375 22.90234375 C-71.16328125 22.91394531 -70.4671875 22.92554688 -69.75 22.9375 C-67.89375 22.9684375 -67.89375 22.9684375 -66 23 C-66 24.32 -66 25.64 -66 27 C-70.52530365 31.23017516 -73.00370523 33.00854826 -79.0625 33.1875 C-87.08529275 33.89014982 -92.2958224 37.70747024 -97.5 43.6875 C-105.40707933 54.56203801 -114.94198237 72.34626619 -114 86 C-113.05241359 88.68348749 -112.05559259 91.18404207 -110.88671875 93.765625 C-110.56102402 94.50893066 -110.23532928 95.25223633 -109.89976501 96.01806641 C-108.8390738 98.43329162 -107.763492 100.84155762 -106.6875 103.25 C-105.58558792 105.74609681 -104.48716472 108.24371042 -103.38885498 110.74139404 C-102.65258526 112.41486758 -101.91499359 114.08776013 -101.17608643 115.7600708 C-98.91640886 120.88088835 -96.70754414 126.01926797 -94.55859375 131.1875 C-94.05690674 132.39245117 -93.55521973 133.59740234 -93.03833008 134.83886719 C-92.11306933 137.07202373 -91.1921607 139.30698966 -90.27612305 141.54394531 C-89.66377808 143.01492676 -89.66377808 143.01492676 -89.0390625 144.515625 C-88.69053223 145.36415039 -88.34200195 146.21267578 -87.98291016 147.08691406 C-87.15031312 149.17117344 -87.15031312 149.17117344 -85 150 C-84.6596875 148.8553125 -84.319375 147.710625 -83.96875 146.53125 C-81.69826367 139.73040075 -78.58307413 133.29028863 -75.56671143 126.79730225 C-73.73943192 122.8620174 -71.92914459 118.91891981 -70.1171875 114.9765625 C-69.75716644 114.19411163 -69.39714539 113.41166077 -69.0262146 112.60549927 C-66.16829773 106.38697887 -63.37000545 100.14425576 -60.625 93.875 C-60.21580322 92.94163818 -59.80660645 92.00827637 -59.38500977 91.04663086 C-57.18854989 86.02656025 -55.00101995 81.00262462 -52.81494141 75.97802734 C-50.77255004 71.2843855 -48.72538739 66.59284272 -46.6762085 61.90216064 C-45.85344968 60.01603826 -45.0325124 58.1291202 -44.21343994 56.24139404 C-43.06189466 53.58744525 -41.90459491 50.93607453 -40.74609375 48.28515625 C-40.22339653 47.07450752 -40.22339653 47.07450752 -39.69013977 45.83940125 C-37.22765084 40.22765084 -37.22765084 40.22765084 -35 38 C-32.48315896 37.82064567 -30.01893173 37.72858203 -27.5 37.6875 C-20.35835327 37.43783137 -15.07531856 35.95771955 -9 32 C-9.33 33.98 -9.66 35.96 -10 38 C-3.73 38 2.54 38 9 38 C7.35 39.65 5.7 41.3 4 43 C-5.51955478 52.71455497 -8.98940077 61.16329281 -9.51757812 74.59960938 C-9.70828297 78.2230015 -9.93791908 79.90687862 -12 83 C-12.66 83 -13.32 83 -14 83 C-19.21385518 74.12846581 -22.99040578 66.58700499 -21 56 C-19.12681306 49.69220259 -16.65466882 43.48200323 -13 38 C-23.15876795 46.35953112 -32.96320201 54.90486166 -34.37109375 68.61328125 C-34.64046849 76.73533793 -33.70625656 82.82231857 -30 90 C-29.32794776 91.34170796 -28.65751284 92.68422666 -27.98828125 94.02734375 C-26.91444611 96.18107132 -25.83546007 98.33057702 -24.73046875 100.46850586 C-21.84003198 106.09561809 -20.84922141 110.07360586 -20.8125 116.375 C-20.79832031 117.47585937 -20.78414062 118.57671875 -20.76953125 119.7109375 C-21.00804087 123.11475276 -21.78627334 125.82416186 -23 129 C-23.99 129 -24.98 129 -26 129 C-26.03867187 127.515 -26.03867187 127.515 -26.078125 126 C-26.36921779 118.4592652 -27.00049175 112.57983616 -31 106 C-31 105.34 -31 104.68 -31 104 C-31.5775 103.7525 -32.155 103.505 -32.75 103.25 C-35.86303419 101.52053656 -38.32131392 99.58360085 -39.75 96.25 C-40.25353321 91.71820111 -40.45704878 87.37114634 -39 83 C-39.66 83 -40.32 83 -41 83 C-43.70684477 90.57272049 -45.61857004 98.14428989 -43 106 C-44.32 106.33 -45.64 106.66 -47 107 C-48.98 103.535 -48.98 103.535 -51 100 C-65.02858957 132.2831517 -65.02858957 132.2831517 -78 165 C-63.62491934 167.99489519 -49.68201778 169.69975424 -35 170 C-35.433125 168.989375 -35.86625 167.97875 -36.3125 166.9375 C-36.58384766 166.29554688 -36.85519531 165.65359375 -37.13476562 164.9921875 C-37.92971514 163.1618297 -38.790065 161.36024246 -39.65625 159.5625 C-41.38210907 154.98696665 -41.46290124 150.76650756 -41.52734375 145.9609375 C-41.69467922 140.86212719 -42.83093324 137.51520019 -45 133 C-45.33 132.01 -45.66 131.02 -46 130 C-45.01 130 -44.02 130 -43 130 C-38.26612019 135.26218358 -37.40933223 138.77497193 -37.5625 145.6875 C-37.39420218 153.88469239 -36.11581384 160.30774253 -31 167 C-27.86562134 169.99891371 -24.59835389 172.58213375 -21 175 C-21.66 174.01 -22.32 173.02 -23 172 C-23.38499891 170.34450469 -23.72793135 168.6777567 -24 167 C-23.01 167 -22.02 167 -21 167 C-21 165.02 -21 163.04 -21 161 C-20.34 160.67 -19.68 160.34 -19 160 C-18.26262013 163.18056516 -17.52952283 166.36163898 -16.8125 169.546875 C-16.34145182 171.54882975 -15.83759693 173.54472697 -15.25 175.515625 C-13.47977648 181.66715173 -14.7100798 186.10283992 -17 192 C-15.84669053 190.42210402 -14.70262073 188.8374518 -13.5625 187.25 C-12.92441406 186.36828125 -12.28632813 185.4865625 -11.62890625 184.578125 C-8.1970164 179.1463569 -8.59838513 173.26154087 -9 167 C-9.65509503 164.99617991 -10.31974363 162.99541868 -11 161 C-10.76525294 156.46155693 -10.27855997 153.27855997 -7 150 C-6.34 150 -5.68 150 -5 150 C-5 155.61 -5 161.22 -5 167 C20.5273537 161.65842935 20.5273537 161.65842935 41.3125 147.3125 C49.60111834 131.04224918 45.96520308 114.58677739 41 98 C40.52530273 96.40357666 40.52530273 96.40357666 40.04101562 94.77490234 C32.09683109 68.52504688 21.13993641 47.68835866 2 28 C1.24460938 27.21882813 0.48921875 26.43765625 -0.2890625 25.6328125 C-22.45442043 4.22915072 -54.31658367 -6.15567098 -84.52685547 -6.24023438 C-86.60035188 -6.24988528 -88.67283081 -6.28097498 -90.74609375 -6.3125 C-100.20192158 -6.38741975 -108.80150029 -5.23899971 -118 -3 C-118.79728516 -2.80647949 -119.59457031 -2.61295898 -120.41601562 -2.41357422 C-152.53080544 5.97826983 -179.9347168 27.62368276 -196.71875 55.98046875 C-213.55160986 85.29068599 -218.81869405 120.32633772 -210.27441406 153.21508789 C-208.3772906 160.07254732 -206.24495128 166.65016728 -203 173 C-202.33871094 174.3921875 -202.33871094 174.3921875 -201.6640625 175.8125 C-196.58184479 187.94959064 -196.58184479 187.94959064 -188 197 C-187.05835467 198.69537918 -186.11706971 200.39096025 -185.17822266 202.08789062 C-183.25285675 205.21252091 -180.79834446 207.69083182 -178.1875 210.25 C-177.61837891 210.80864746 -177.04925781 211.36729492 -176.46289062 211.94287109 C-150.96450965 236.3938485 -118.03737162 248.08851014 -83 248 C-55.42748004 247.20240605 -28.03360969 240.63128435 -4 227 C-2.12913493 225.96182738 -0.25803983 224.92406917 1.61328125 223.88671875 C3.51399769 222.82205458 5.4137201 221.75561407 7.3125 220.6875 C8.30854248 220.12788574 9.30458496 219.56827148 10.33081055 218.99169922 C17.2660344 215.06355606 23.9694935 210.90743869 30.55078125 206.4140625 C31.76314453 205.71410156 31.76314453 205.71410156 33 205 C33.66 205.33 34.32 205.66 35 206 C10.49203796 239.61711608 -24.60768489 259.94076962 -65.61328125 266.640625 C-70.73570365 267.41192264 -75.82538947 267.83447004 -81 268 C-81.83402344 268.03996094 -82.66804687 268.07992188 -83.52734375 268.12109375 C-123.02017568 269.15557471 -161.97669129 253.40367293 -190.6015625 226.42822266 C-195.52097405 221.63835145 -199.88850802 216.49978798 -204 211 C-204.72574219 210.03964844 -205.45148438 209.07929688 -206.19921875 208.08984375 C-224.75883417 182.46915301 -234.45178778 152.88314602 -234.4375 121.25 C-234.43823517 120.53511414 -234.43897034 119.82022827 -234.43972778 119.0836792 C-234.33596279 80.33578598 -218.9736401 43.63472156 -191.9296875 15.859375 C-173.66188808 -2.2759618 -150.46754088 -14.58559367 -126 -22 C-125.01515625 -22.2990625 -124.0303125 -22.598125 -123.015625 -22.90625 C-82.0470775 -34.22352831 -34.09457099 -24.90347997 0 0 Z " fill="#010101" transform="translate(250,45)"/>
<path d="M0 0 C1.85625 0.0309375 1.85625 0.0309375 3.75 0.0625 C3.75 1.3825 3.75 2.7025 3.75 4.0625 C-0.77530365 8.29267516 -3.25370523 10.07104826 -9.3125 10.25 C-17.33529275 10.95264982 -22.5458224 14.76997024 -27.75 20.75 C-35.65707933 31.62453801 -45.19198237 49.40876619 -44.25 63.0625 C-43.30241359 65.74598749 -42.30559259 68.24654207 -41.13671875 70.828125 C-40.81102402 71.57143066 -40.48532928 72.31473633 -40.14976501 73.08056641 C-39.0890738 75.49579162 -38.013492 77.90405762 -36.9375 80.3125 C-35.83558792 82.80859681 -34.73716472 85.30621042 -33.63885498 87.80389404 C-32.90258526 89.47736758 -32.16499359 91.15026013 -31.42608643 92.8225708 C-29.16640886 97.94338835 -26.95754414 103.08176797 -24.80859375 108.25 C-24.30690674 109.45495117 -23.80521973 110.65990234 -23.28833008 111.90136719 C-22.36306933 114.13452373 -21.4421607 116.36948966 -20.52612305 118.60644531 C-19.91377808 120.07742676 -19.91377808 120.07742676 -19.2890625 121.578125 C-18.94053223 122.42665039 -18.59200195 123.27517578 -18.23291016 124.14941406 C-17.40031312 126.23367344 -17.40031312 126.23367344 -15.25 127.0625 C-14.9096875 125.9178125 -14.569375 124.773125 -14.21875 123.59375 C-11.94826367 116.79290075 -8.83307413 110.35278863 -5.81671143 103.85980225 C-3.98943192 99.9245174 -2.17914459 95.98141981 -0.3671875 92.0390625 C-0.00716644 91.25661163 0.35285461 90.47416077 0.7237854 89.66799927 C3.58170227 83.44947887 6.37999455 77.20675576 9.125 70.9375 C9.73879517 69.53745728 9.73879517 69.53745728 10.36499023 68.10913086 C12.56145011 63.08906025 14.74898005 58.06512462 16.93505859 53.04052734 C18.97744996 48.3468855 21.02461261 43.65534272 23.0737915 38.96466064 C23.89655032 37.07853826 24.7174876 35.1916202 25.53656006 33.30389404 C26.68810534 30.64994525 27.84540509 27.99857453 29.00390625 25.34765625 C29.52660347 24.13700752 29.52660347 24.13700752 30.05986023 22.90190125 C32.52234916 17.29015084 32.52234916 17.29015084 34.75 15.0625 C37.26684104 14.88314567 39.73106827 14.79108203 42.25 14.75 C49.39164673 14.50033137 54.67468144 13.02021955 60.75 9.0625 C60.42 11.0425 60.09 13.0225 59.75 15.0625 C66.02 15.0625 72.29 15.0625 78.75 15.0625 C77.1 16.7125 75.45 18.3625 73.75 20.0625 C64.23044522 29.77705497 60.76059923 38.22579281 60.23242188 51.66210938 C60.04171703 55.2855015 59.81208092 56.96937862 57.75 60.0625 C57.09 60.0625 56.43 60.0625 55.75 60.0625 C50.53614482 51.19096581 46.75959422 43.64950499 48.75 33.0625 C50.62318694 26.75470259 53.09533118 20.54450323 56.75 15.0625 C46.59123205 23.42203112 36.78679799 31.96736166 35.37890625 45.67578125 C35.10953151 53.79783793 36.04374344 59.88481857 39.75 67.0625 C40.42205224 68.40420796 41.09248716 69.74672666 41.76171875 71.08984375 C42.83555389 73.24357132 43.91453993 75.39307702 45.01953125 77.53100586 C47.90996802 83.15811809 48.90077859 87.13610586 48.9375 93.4375 C48.95167969 94.53835937 48.96585938 95.63921875 48.98046875 96.7734375 C48.74195913 100.17725276 47.96372666 102.88666186 46.75 106.0625 C45.76 106.0625 44.77 106.0625 43.75 106.0625 C43.71132813 104.5775 43.71132813 104.5775 43.671875 103.0625 C43.38078221 95.5217652 42.74950825 89.64233616 38.75 83.0625 C38.75 82.4025 38.75 81.7425 38.75 81.0625 C38.1725 80.815 37.595 80.5675 37 80.3125 C33.88696581 78.58303656 31.42868608 76.64610085 30 73.3125 C29.49646679 68.78070111 29.29295122 64.43364634 30.75 60.0625 C30.09 60.0625 29.43 60.0625 28.75 60.0625 C26.04315523 67.63522049 24.13142996 75.20678989 26.75 83.0625 C25.43 83.3925 24.11 83.7225 22.75 84.0625 C20.77 80.5975 20.77 80.5975 18.75 77.0625 C4.72141043 109.3456517 4.72141043 109.3456517 -8.25 142.0625 C5.78796178 144.95989343 19.4154064 146.75155437 33.75 147.0625 C32.83035714 155.84821429 32.83035714 155.84821429 29.75 159.0625 C29.75 158.4025 29.75 157.7425 29.75 157.0625 C28.63625 157.07410156 27.5225 157.08570313 26.375 157.09765625 C12.74588824 157.1953937 -0.69241359 156.54536101 -14.25 155.0625 C-16.56 160.6725 -18.87 166.2825 -21.25 172.0625 C-23.89 172.0625 -26.53 172.0625 -29.25 172.0625 C-32.22 164.4725 -35.19 156.8825 -38.25 149.0625 C-36.93 148.4025 -35.61 147.7425 -34.25 147.0625 C-34.91 146.7325 -35.57 146.4025 -36.25 146.0625 C-36.25 145.4025 -36.25 144.7425 -36.25 144.0625 C-37.24 144.3925 -38.23 144.7225 -39.25 145.0625 C-39.91 144.7325 -40.57 144.4025 -41.25 144.0625 C-41.25 143.0725 -41.25 142.0825 -41.25 141.0625 C-42.24 140.7325 -43.23 140.4025 -44.25 140.0625 C-44.31767578 138.29326172 -44.31767578 138.29326172 -44.38671875 136.48828125 C-45.18729416 129.31675198 -48.29347188 122.84141115 -51.0625 116.25 C-52.13717115 113.66247045 -53.20499943 111.07218466 -54.26953125 108.48046875 C-54.66109909 107.53154251 -54.66109909 107.53154251 -55.06057739 106.56344604 C-56.64358897 102.68562921 -58.04445634 98.78805509 -59.32421875 94.80078125 C-60.85681807 90.04378306 -62.76771007 85.61789679 -64.88916016 81.09814453 C-66.48623996 77.5355162 -67.90184069 73.92429346 -69.29296875 70.27734375 C-69.55054962 69.60281158 -69.80813049 68.92827942 -70.07351685 68.23330688 C-71.13601645 65.44190323 -72.19297926 62.64844098 -73.24682617 59.85375977 C-74.02849429 57.78486114 -74.8166145 55.71851086 -75.60546875 53.65234375 C-76.06590576 52.43409912 -76.52634277 51.21585449 -77.00073242 49.96069336 C-78.06466606 47.00153591 -78.06466606 47.00153591 -80.25 45.0625 C-80.62679633 53.60203636 -81.00078947 62.14168979 -81.37164211 70.68148613 C-81.54410958 74.65115793 -81.71738102 78.62079045 -81.89282227 82.59033203 C-82.87114758 104.74362476 -83.66340376 126.8952805 -84.25 149.0625 C-83.59 149.0625 -82.93 149.0625 -82.25 149.0625 C-81.92 146.7525 -81.59 144.4425 -81.25 142.0625 C-79.27 142.3925 -77.29 142.7225 -75.25 143.0625 C-74.4375 145.25 -74.4375 145.25 -74.25 148.0625 C-76.5625 150.5625 -76.5625 150.5625 -79.25 153.0625 C-80.569018 155.72783035 -80.569018 155.72783035 -81.25 158.0625 C-77.1706365 163.32273188 -72.97119567 166.90770832 -67.421875 170.58203125 C-65.25 172.0625 -65.25 172.0625 -63.25 174.0625 C-81.07 174.0625 -98.89 174.0625 -117.25 174.0625 C-115.93 172.4125 -114.61 170.7625 -113.25 169.0625 C-112.57535367 166.68532537 -112.57535367 166.68532537 -112.375 164.25 C-111.30484087 157.84815518 -108.12501488 153.45472936 -103.1796875 149.33984375 C-101.25 148.0625 -101.25 148.0625 -99.25 148.0625 C-97.30810244 129.14242201 -95.74062666 110.19823223 -94.33483887 91.23123169 C-94.15478488 88.80568819 -93.97277084 86.3802893 -93.78869629 83.95504761 C-90.20712006 52.02119841 -90.20712006 52.02119841 -102.2109375 23.3828125 C-104.69279964 20.55862454 -107.24769636 18.31422773 -110.25 16.0625 C-110.25 15.7325 -110.25 15.4025 -110.25 15.0625 C-95.4 15.0625 -80.55 15.0625 -65.25 15.0625 C-60.96 24.9625 -56.67 34.8625 -52.25 45.0625 C-51.59 45.0625 -50.93 45.0625 -50.25 45.0625 C-49.75371094 44.01191406 -49.25742188 42.96132812 -48.74609375 41.87890625 C-44.94289145 33.96413391 -41.1952297 26.62134285 -35.25 20.0625 C-34.70859375 19.45277344 -34.1671875 18.84304687 -33.609375 18.21484375 C-25.32799948 9.41104501 -12.59849712 -0.20997495 0 0 Z " fill="#030303" transform="translate(180.25,67.9375)"/>
<path d="M0 0 C0.66 0 1.32 0 2 0 C0.72922595 4.03203542 -0.81128699 7.74946008 -2.625 11.5625 C-5.82618748 19.29312887 -6.78386786 26.50177412 -3.64453125 34.41796875 C-2.58779294 36.51889503 -1.48044431 38.59551979 -0.3125 40.63671875 C1 43 1 43 1 45 C1.66 45 2.32 45 3 45 C3.33 44.01 3.66 43.02 4 42 C7.36145695 45.36145695 7.95420216 49.08404318 8.1875 53.75 C8.68089912 58.6281347 11.40750817 61.71133261 14.28125 65.5390625 C18.85057514 72.08150531 20.76523922 80.08771526 20 88 C18.57716618 94.735617 14.70459472 99.15362298 10 104 C11.98 104 13.96 104 16 104 C15.26674793 105.48754006 14.51273922 106.96486192 13.75 108.4375 C13.33234375 109.26121094 12.9146875 110.08492188 12.484375 110.93359375 C10.72652551 113.38070527 9.86682966 113.47822528 7 114 C4.45982733 118.11266052 5.0630715 121.4005328 6 126 C6.33 126.99 6.66 127.98 7 129 C7.90741729 139.95880882 4.74992574 146.58989835 -2 155 C-2.33 154.34 -2.66 153.68 -3 153 C-2.53249127 151.62651163 -2.00104875 150.27445457 -1.4375 148.9375 C0.41295039 143.63118564 -0.41467409 140.25139208 -2 135 C-2.54905406 132.81434251 -3.09053043 130.62676958 -3.625 128.4375 C-4.08215964 126.62470361 -4.54007684 124.81209723 -5 123 C-5.33 124.98 -5.66 126.96 -6 129 C-6.99 129 -7.98 129 -9 129 C-7.46395304 132.14191424 -5.94268841 135.08596738 -4 138 C-12.66860785 133.83906823 -17.70554004 128.63349909 -22 120 C-22.89301629 117.32095112 -23.13214152 115.69869711 -23.17578125 112.9453125 C-23.21155273 111.77548828 -23.21155273 111.77548828 -23.24804688 110.58203125 C-23.29080383 108.95208413 -23.32216939 107.32179594 -23.34179688 105.69140625 C-23.52680683 100.46810182 -24.26625153 97.92006326 -28 94 C-28 93.34 -28 92.68 -28 92 C-28.99 92.495 -28.99 92.495 -30 93 C-29.525625 93.7425 -29.05125 94.485 -28.5625 95.25 C-26.18597105 99.43269096 -25.92854579 102.72680546 -25.81030273 107.53417969 C-25.60679267 114.59029369 -24.8534632 119.83518144 -21.05859375 125.984375 C-20 128 -20 128 -20 132 C-31.30025965 132.41596048 -42.09974901 132.17108672 -53.25 130.125 C-54.20793457 129.95129883 -55.16586914 129.77759766 -56.15283203 129.59863281 C-61.14265604 128.61323592 -61.14265604 128.61323592 -63 128 C-64 126 -64 126 -63.49746704 124.26835632 C-63.20262421 123.57224747 -62.90778137 122.87613861 -62.60400391 122.15893555 C-62.27260406 121.3659758 -61.94120422 120.57301605 -61.59976196 119.75602722 C-61.22910614 118.89165543 -60.85845032 118.02728363 -60.4765625 117.13671875 C-60.09696381 116.23492386 -59.71736511 115.33312897 -59.32626343 114.40400696 C-58.09977666 111.49537178 -56.86250213 108.59146324 -55.625 105.6875 C-54.82872687 103.80303009 -54.03314644 101.91826733 -53.23828125 100.03320312 C-51.64605607 96.26148466 -50.04559737 92.49342196 -48.43847656 88.72802734 C-46.76325759 84.80249785 -45.10615742 80.8699138 -43.45996094 76.93212891 C-42.64784637 75.00290447 -41.83567404 73.07370434 -41.0234375 71.14453125 C-40.64820953 70.2391008 -40.27298157 69.33367035 -39.88638306 68.40080261 C-39.53635223 67.57349136 -39.18632141 66.74618011 -38.82568359 65.89379883 C-38.52036713 65.16365067 -38.21505066 64.4335025 -37.90048218 63.68122864 C-37 62 -37 62 -35 61 C-34.01 63.31 -33.02 65.62 -32 68 C-31.01 67.67 -30.02 67.34 -29 67 C-29.33 66.34 -29.66 65.68 -30 65 C-30.87977709 57.50026089 -29.21074661 51.7368344 -26 45 C-25.34 45 -24.68 45 -24 45 C-24.02320313 45.73605469 -24.04640625 46.47210938 -24.0703125 47.23046875 C-24.08835938 48.20628906 -24.10640625 49.18210938 -24.125 50.1875 C-24.14820313 51.15042969 -24.17140625 52.11335938 -24.1953125 53.10546875 C-23.98732125 56.18789911 -23.40816158 58.25902997 -22 61 C-21.071875 61.721875 -20.14375 62.44375 -19.1875 63.1875 C-13.84678338 67.42865731 -11.40913362 73.10297299 -10.46875 79.76171875 C-10.21994358 83.17935142 -10.05429972 86.57418133 -10 90 C-7.85940636 89.21733367 -7.85940636 89.21733367 -7.39453125 87.31640625 C-5.02194583 73.38627601 -9.65344669 62.96935446 -16.26953125 51.12548828 C-20.93869631 42.72945627 -21.20663524 33.61793021 -19.4921875 24.21484375 C-16.96927128 16.68283658 -9.89019928 7.47859416 -2.71875 3.84375 C-2.1515625 3.5653125 -1.584375 3.286875 -1 3 C-0.67 2.01 -0.34 1.02 0 0 Z " fill="#050505" transform="translate(235,83)"/>
<path d="M0 0 C2.38558642 2.14808248 3.60284386 3.97143251 4.74584961 6.96142578 C5.05304428 7.75300079 5.36023895 8.54457581 5.67674255 9.36013794 C5.99869095 10.21324554 6.32063934 11.06635315 6.65234375 11.9453125 C6.99374893 12.82976044 7.33515411 13.71420837 7.68690491 14.62545776 C8.77797518 17.45580821 9.85818659 20.29014782 10.9375 23.125 C12.01518018 25.93764144 13.09515118 28.7493792 14.17738342 31.56027222 C14.84944508 33.30772543 15.51860836 35.05629723 16.18431091 36.80618286 C18.03121803 41.62948328 20.00481607 46.3664654 22.14401245 51.06781006 C23.31224347 53.70481596 24.25757661 56.39579955 25.1875 59.125 C26.79147889 63.73517833 28.49496545 68.27718275 30.3203125 72.8046875 C30.72999268 73.82546387 31.13967285 74.84624023 31.56176758 75.89794922 C32.38385158 77.9368716 33.21418745 79.97248982 34.0534668 82.00439453 C37.5884043 90.80096495 37.5884043 90.80096495 37 96 C37.99 96.495 37.99 96.495 39 97 C39 97.99 39 98.98 39 100 C40.65 100 42.3 100 44 100 C44 100.66 44 101.32 44 102 C45.32 102.66 46.64 103.32 48 104 C41.85026806 106.30614948 37.033482 105.79007271 30.5859375 104.81738281 C22.40011388 103.64635527 14.2494499 103.82813646 6 104 C5.505 101.525 5.505 101.525 5 99 C3.35 99 1.7 99 0 99 C-0.66 100.98 -1.32 102.96 -2 105 C-2.66 105 -3.32 105 -4 105 C-4.20667999 82.05105546 -3.71620537 59.19875046 -2.66760254 36.27435303 C-2.52409176 33.08353013 -2.38989382 29.89233898 -2.25558567 26.70111752 C-2.12455028 23.60848171 -1.98878506 20.51606869 -1.85142326 17.42370796 C-1.78677121 15.95927 -1.72338833 14.49477541 -1.66131783 13.03022575 C-1.57523532 11.01986155 -1.48226719 9.00979566 -1.38891602 6.99975586 C-1.33784195 5.86098495 -1.28676788 4.72221405 -1.23414612 3.54893494 C-1 1 -1 1 0 0 Z " fill="#AC0714" transform="translate(100,112)"/>
<path d="M0 0 C1.96099207 1.96099207 2.80989009 3.41110058 4 5.875 C4.495 6.89207031 4.495 6.89207031 5 7.9296875 C5.495 8.95449219 5.495 8.95449219 6 10 C6.66481931 11.33425541 7.33094492 12.66786355 8 14 C8.66 14 9.32 14 10 14 C13.82338506 17.25879193 15.89325506 19.87917809 16.375 24.9375 C16.189375 26.4534375 16.189375 26.4534375 16 28 C15.3709375 27.855625 14.741875 27.71125 14.09375 27.5625 C8.59433381 26.36985553 3.62333057 25.7917285 -2 26 C-1.45730469 26.37511719 -0.91460937 26.75023437 -0.35546875 27.13671875 C5.0436159 30.99876669 8.70149246 34.27034354 10 41 C10.07328561 42.84435453 10.14431111 44.6889278 10.18969727 46.53417969 C10.39320733 53.59029369 11.1465368 58.83518144 14.94140625 64.984375 C16 67 16 67 16 71 C4.69974035 71.41596048 -6.09974901 71.17108672 -17.25 69.125 C-18.20793457 68.95129883 -19.16586914 68.77759766 -20.15283203 68.59863281 C-25.14265604 67.61323592 -25.14265604 67.61323592 -27 67 C-28 65 -28 65 -27.49746704 63.26835632 C-27.05520279 62.22419304 -27.05520279 62.22419304 -26.60400391 61.15893555 C-26.27260406 60.3659758 -25.94120422 59.57301605 -25.59976196 58.75602722 C-25.22910614 57.89165543 -24.85845032 57.02728363 -24.4765625 56.13671875 C-24.09696381 55.23492386 -23.71736511 54.33312897 -23.32626343 53.40400696 C-22.09977666 50.49537178 -20.86250213 47.59146324 -19.625 44.6875 C-18.82872687 42.80303009 -18.03314644 40.91826733 -17.23828125 39.03320312 C-15.24586045 34.31445406 -13.24133852 29.60096995 -11.23156738 24.8895874 C-9.95954359 21.9050784 -8.692054 18.91866793 -7.42480469 15.93212891 C-6.60370916 14.00284731 -5.78242702 12.07364512 -4.9609375 10.14453125 C-4.38552719 8.78638557 -4.38552719 8.78638557 -3.79849243 7.40080261 C-3.44523895 6.57349136 -3.09198547 5.74618011 -2.72802734 4.89379883 C-2.41747406 4.16365067 -2.10692078 3.4335025 -1.78695679 2.68122864 C-1 1 -1 1 0 0 Z " fill="#FDFDFD" transform="translate(199,144)"/>
<path d="M0 0 C0.99 0 1.98 0 3 0 C7.73387981 5.26218358 8.59066777 8.77497193 8.4375 15.6875 C8.60579782 23.88469239 9.88418616 30.30774253 15 37 C18.13437866 39.99891371 21.40164611 42.58213375 25 45 C24.34 44.01 23.68 43.02 23 42 C22.61500109 40.34450469 22.27206865 38.6777567 22 37 C22.99 37 23.98 37 25 37 C25 35.02 25 33.04 25 31 C25.66 30.67 26.32 30.34 27 30 C27.73737987 33.18056516 28.47047717 36.36163898 29.1875 39.546875 C29.65854818 41.54882975 30.16240307 43.54472697 30.75 45.515625 C32.52022352 51.66715173 31.2899202 56.10283992 29 62 C30.15330947 60.42210402 31.29737927 58.8374518 32.4375 57.25 C33.07558594 56.36828125 33.71367187 55.4865625 34.37109375 54.578125 C37.8029836 49.1463569 37.40161487 43.26154087 37 37 C36.34490497 34.99617991 35.68025637 32.99541868 35 31 C35.23474706 26.46155693 35.72144003 23.27855997 39 20 C39.66 20 40.32 20 41 20 C41 25.61 41 31.22 41 37 C55.23786477 33.45846922 55.23786477 33.45846922 69.06640625 28.6015625 C71 28 71 28 73 29 C71.68 29.66 70.36 30.32 69 31 C69.165 31.639375 69.33 32.27875 69.5 32.9375 C70 35 70 35 70 36 C67.24969748 37.44795797 64.55859312 38.54502745 61.59375 39.47265625 C60.76746094 39.73240234 59.94117188 39.99214844 59.08984375 40.25976562 C58.23519531 40.52466797 57.38054687 40.78957031 56.5 41.0625 C55.64535156 41.33126953 54.79070312 41.60003906 53.91015625 41.87695312 C50.28979155 43.00937609 46.68859702 44.10970301 43 45 C43 52.3941637 47.04252813 56.80774804 52 62 C53.9605163 63.60704795 55.77153224 64.77434273 58 66 C57.67 66.66 57.34 67.32 57 68 C36.21 67.67 15.42 67.34 -6 67 C0 60 0 60 2.0625 57.6875 C6.55853544 51.45106375 10.99213865 43.95088894 10 36 C8.98285181 33.72353592 8.98285181 33.72353592 7.625 31.4375 C4.36092165 25.71639563 4.39885346 20.24316719 4.3359375 13.83203125 C3.95409784 9.47639512 2.88019966 6.90833381 1 3 C0.67 2.01 0.34 1.02 0 0 Z " fill="#040404" transform="translate(204,175)"/>
<path d="M0 0 C3.35468271 3.07786094 4.73877655 6.65369948 6.390625 10.81640625 C6.69949646 11.58750229 7.00836792 12.35859833 7.32659912 13.15306091 C7.97635376 14.78625498 8.62161536 16.42124273 9.26269531 18.05786133 C10.24023836 20.53773623 11.24822718 23.00373255 12.2578125 25.47070312 C18.34946212 40.70388145 18.34946212 40.70388145 16 49 C15.75378906 50.01376709 15.50757812 51.02753418 15.25390625 52.07202148 C14.36822761 55.5523038 13.38824506 58.99227797 12.375 62.4375 C12.01817139 63.65928955 11.66134277 64.8810791 11.29370117 66.13989258 C9.10250713 73.53365586 6.84675431 80.90347981 4.3125 88.1875 C4.05194824 88.97632568 3.79139648 89.76515137 3.52294922 90.57788086 C2.73828125 92.73046875 2.73828125 92.73046875 1 96 C-1.60864258 96.7043457 -1.60864258 96.7043457 -4 97 C-4.24382041 77.69154409 -3.6352062 58.47026876 -2.77319336 39.1862793 C-2.5933838 35.16301439 -2.42320101 31.13940415 -2.25558567 27.11561489 C-2.12440605 23.98865789 -1.98864965 20.86191311 -1.85142326 17.73521614 C-1.78667258 16.24845293 -1.72329287 14.76162935 -1.66131783 13.27474785 C-1.57515835 11.22520119 -1.48222214 9.17594273 -1.38891602 7.12670898 C-1.33784195 5.96380844 -1.28676788 4.8009079 -1.23414612 3.60276794 C-1 1 -1 1 0 0 Z " fill="#FDFDFD" transform="translate(100,112)"/>
<path d="M0 0 C0.66 0 1.32 0 2 0 C0.72922595 4.03203542 -0.81128699 7.74946008 -2.625 11.5625 C-5.51438102 18.61675457 -7.1178239 25.61002473 -4.22509766 32.97216797 C-2.59144789 36.48572538 -0.75346669 39.88195376 1.08203125 43.29296875 C6.55238768 53.57475819 5.83218849 65.69405335 3.05859375 76.75390625 C0.48969886 84.47754733 -3.01673013 91.53555672 -8 98 C-8.99 98.495 -8.99 98.495 -10 99 C-9.68872484 97.41642541 -9.37592711 95.83315007 -9.0625 94.25 C-8.88847656 93.36828125 -8.71445313 92.4865625 -8.53515625 91.578125 C-8.21980054 90.0588931 -7.87226461 88.54471457 -7.453125 87.05078125 C-4.46639318 73.533245 -9.87778432 62.56775366 -16.26953125 51.12548828 C-20.93869631 42.72945627 -21.20663524 33.61793021 -19.4921875 24.21484375 C-16.96927128 16.68283658 -9.89019928 7.47859416 -2.71875 3.84375 C-2.1515625 3.5653125 -1.584375 3.286875 -1 3 C-0.67 2.01 -0.34 1.02 0 0 Z " fill="#FAFAFA" transform="translate(235,83)"/>
<path d="M0 0 C0.33 0.66 0.66 1.32 1 2 C3.72904959 2.32383218 3.72904959 2.32383218 7.125 2.375 C13.96102151 2.68668552 20.58114778 3.66434921 27.3125 4.875 C28.79544556 5.14026489 28.79544556 5.14026489 30.30834961 5.41088867 C34.03042057 6.08311133 37.75045 6.76536942 41.46777344 7.46337891 C53.31883479 9.67949224 64.9489837 10.63519888 77 11 C76.08035714 19.78571429 76.08035714 19.78571429 73 23 C73 22.34 73 21.68 73 21 C71.88625 21.01160156 70.7725 21.02320313 69.625 21.03515625 C55.99588824 21.1328937 42.55758641 20.48286101 29 19 C26.69 24.61 24.38 30.22 22 36 C19.36 36 16.72 36 14 36 C11.03 28.41 8.06 20.82 5 13 C6.32 12.34 7.64 11.68 9 11 C8.34 10.67 7.68 10.34 7 10 C7 9.34 7 8.68 7 8 C6.01 8.33 5.02 8.66 4 9 C3.34 8.67 2.68 8.34 2 8 C2 7.01 2 6.02 2 5 C1.01 4.67 0.02 4.34 -1 4 C-0.67 2.68 -0.34 1.36 0 0 Z " fill="#80040B" transform="translate(137,204)"/>
<path d="M0 0 C1.98 0.33 3.96 0.66 6 1 C6.8125 3.1875 6.8125 3.1875 7 6 C4.6875 8.5 4.6875 8.5 2 11 C0.680982 13.66533035 0.680982 13.66533035 0 16 C4.0793635 21.26023188 8.27880433 24.84520832 13.828125 28.51953125 C16 30 16 30 18 32 C0.18 32 -17.64 32 -36 32 C-34.68 30.35 -33.36 28.7 -32 27 C-31.32535367 24.62282537 -31.32535367 24.62282537 -31.125 22.1875 C-30.05484087 15.78565518 -26.87501488 11.39222936 -21.9296875 7.27734375 C-20 6 -20 6 -18 6 C-17.67 9.96 -17.34 13.92 -17 18 C-15.35 18.33 -13.7 18.66 -12 19 C-11.566875 18.1028125 -11.566875 18.1028125 -11.125 17.1875 C-10 15 -10 15 -8 12 C-7.34 12 -6.68 12 -6 12 C-5.67 10.68 -5.34 9.36 -5 8 C-3.68 7.67 -2.36 7.34 -1 7 C-0.67 4.69 -0.34 2.38 0 0 Z " fill="#E30519" transform="translate(99,210)"/>
<path d="M0 0 C3.36145695 3.36145695 3.95420216 7.08404318 4.1875 11.75 C4.68089912 16.6281347 7.40750817 19.71133261 10.28125 23.5390625 C14.85057514 30.08150531 16.76523922 38.08771526 16 46 C14.57716618 52.735617 10.70459472 57.15362298 6 62 C7.98 62 9.96 62 12 62 C11.26674793 63.48754006 10.51273922 64.96486192 9.75 66.4375 C9.33234375 67.26121094 8.9146875 68.08492188 8.484375 68.93359375 C6.72652551 71.38070527 5.86682966 71.47822528 3 72 C0.45982733 76.11266052 1.0630715 79.4005328 2 84 C2.33 84.99 2.66 85.98 3 87 C3.90741729 97.95880882 0.74992574 104.58989835 -6 113 C-6.33 112.34 -6.66 111.68 -7 111 C-6.53249127 109.62651163 -6.00104875 108.27445457 -5.4375 106.9375 C-3.58736682 101.63209527 -4.41305471 98.25104411 -6 93 C-6.52823465 90.89767917 -7.04879883 88.79341924 -7.5625 86.6875 C-8.53816017 82.76781759 -8.53816017 82.76781759 -9.6640625 78.890625 C-10.45623626 74.43234477 -7.64667107 69.97000661 -5.25 66.375 C-2.38195645 63.3476207 0.60365846 60.43432361 4 58 C4.66 58 5.32 58 6 58 C6.268125 57.46375 6.53625 56.9275 6.8125 56.375 C8 54 8 54 9.625 51.5 C12.5645918 44.0174027 11.70608088 36.95714208 8.6875 29.625 C7.81278678 27.74005461 6.91936378 25.86357522 6 24 C5.46375 22.824375 4.9275 21.64875 4.375 20.4375 C3.19392934 18.01551898 3.19392934 18.01551898 1.49609375 16.72265625 C-0.60684361 14.30125841 -0.80823666 12.1410602 -1.3125 9 C-1.49425781 7.948125 -1.67601562 6.89625 -1.86328125 5.8125 C-2 3 -2 3 0 0 Z " fill="#080808" transform="translate(239,125)"/>
<path d="M0 0 C1.85625 0.0309375 1.85625 0.0309375 3.75 0.0625 C3.75 1.3825 3.75 2.7025 3.75 4.0625 C-0.77530365 8.29267516 -3.25370523 10.07104826 -9.3125 10.25 C-17.33529275 10.95264982 -22.5458224 14.76997024 -27.75 20.75 C-36.3510172 32.63140516 -41.40083073 47.03914461 -45.25 61.0625 C-47.53744407 58.20650046 -49.17994856 55.4240381 -50.625 52.0625 C-51.00398437 51.216875 -51.38296875 50.37125 -51.7734375 49.5 C-52.25 47.0625 -52.25 47.0625 -51.0546875 45.16796875 C-50.45914063 44.47316406 -49.86359375 43.77835938 -49.25 43.0625 C-48.13608518 40.84845643 -47.05579877 38.61733898 -46 36.375 C-43.05873535 30.32863159 -39.74586844 25.1039345 -35.25 20.0625 C-34.70730469 19.45019531 -34.16460937 18.83789062 -33.60546875 18.20703125 C-25.31442373 9.41114508 -12.60121877 -0.21002031 0 0 Z " fill="#420507" transform="translate(180.25,67.9375)"/>
<path d="M0 0 C4.6906183 4.20677228 6.64785362 9.9493406 7.359375 16.11328125 C7.54129583 23.41740243 6.70807949 28.07812476 1.625 33.5625 C0.325625 34.7690625 0.325625 34.7690625 -1 36 C-1.886875 36.928125 -2.77375 37.85625 -3.6875 38.8125 C-6 41 -6 41 -8 41 C-8.268125 41.556875 -8.53625 42.11375 -8.8125 42.6875 C-10 45 -10 45 -11.5 47.21875 C-13.25100776 50.46541023 -13.70859705 53.16546981 -14.1875 56.8125 C-14.42533203 58.55466797 -14.42533203 58.55466797 -14.66796875 60.33203125 C-14.77753906 61.21246094 -14.88710937 62.09289062 -15 63 C-15.66 62.67 -16.32 62.34 -17 62 C-19.70310931 52.46890677 -18.92739305 41.62437592 -14.765625 32.71484375 C-12.18369355 28.74483853 -8.85944088 26.01079728 -5.25 22.9921875 C-2.06522507 20.17233469 -0.95498297 18.16099724 0 14 C0.21127873 9.32094913 0.17523931 4.67953855 0 0 Z " fill="#FBFBFB" transform="translate(244,148)"/>
<path d="M0 0 C0.66 0 1.32 0 2 0 C3.55869262 3.71275911 5.10650965 7.42985259 6.64477539 11.15112305 C7.16856218 12.41405092 7.69520519 13.67579841 8.22485352 14.9362793 C8.98960618 16.75770247 9.74294879 18.58390279 10.49609375 20.41015625 C10.95169678 21.50465088 11.4072998 22.59914551 11.87670898 23.72680664 C13 27 13 27 14 34 C5.42 34 -3.16 34 -12 34 C-11.27960703 30.39803514 -10.61702728 27.75216264 -9.2578125 24.453125 C-8.91363281 23.6075 -8.56945312 22.761875 -8.21484375 21.890625 C-7.85519531 21.01921875 -7.49554688 20.1478125 -7.125 19.25 C-4.51315665 12.89738467 -2.08122307 6.54780208 0 0 Z " fill="#FCFBFB" transform="translate(123,172)"/>
<path d="M0 0 C9.22029568 2.96855217 15.53131682 5.45197563 20.1484375 14.16796875 C21.53466676 18.77813486 21.04590119 23.37245048 20.83398438 28.14257812 C20.63175925 36.40591495 23.16827286 42.235582 28 49 C28.33 49.66 28.66 50.32 29 51 C20.33139215 46.83906823 15.29445996 41.63349909 11 33 C9.9375463 29.8126389 9.9090136 27.07362437 9.86181641 23.74023438 C9.70427549 13.69889316 9.70427549 13.69889316 4.5703125 5.3125 C2.82273225 3.80382804 2.82273225 3.80382804 0 2 C0 1.34 0 0.68 0 0 Z " fill="#FAFAFA" transform="translate(202,170)"/>
<path d="M0 0 C4.03550014 5.19483209 6.96064101 11.5209468 7.01953125 18.22265625 C6.55592576 20.60494583 5.84814283 22.72145755 5 25 C4.76861328 25.64146973 4.53722656 26.28293945 4.29882812 26.94384766 C2.59784527 31.65548533 0.82080837 36.33346281 -1 41 C-1.66 39.68 -2.32 38.36 -3 37 C-6.54865549 38.97147527 -9.18600451 41.08979954 -12 44 C-8 29.33333333 -4 14.66666667 0 0 Z " fill="#990711" transform="translate(117,153)"/>
<path d="M0 0 C0.66 0 1.32 0 2 0 C1.96519531 1.10408203 1.96519531 1.10408203 1.9296875 2.23046875 C1.91164062 3.20628906 1.89359375 4.18210938 1.875 5.1875 C1.84019531 6.63189453 1.84019531 6.63189453 1.8046875 8.10546875 C2.01267875 11.18789911 2.59183842 13.25902997 4 16 C5.3921875 17.0828125 5.3921875 17.0828125 6.8125 18.1875 C11.5272043 21.96389705 14.49767112 26.9146613 15.24267578 32.97363281 C16.04070711 45.43893934 16.04070711 45.43893934 13 50 C12.90203125 49.27554688 12.8040625 48.55109375 12.703125 47.8046875 C11.16146704 37.83707136 7.25216418 32.99291293 0.0234375 26.1484375 C-3.9814131 21.896183 -4.42053555 18.43498927 -4.3359375 12.75 C-3.77489961 8.15731772 -1.97742731 4.14906624 0 0 Z " fill="#F9F9F9" transform="translate(209,128)"/>
<path d="M0 0 C1.97969854 0.11627287 3.95875213 0.2435368 5.9375 0.375 C7.03964844 0.44460937 8.14179688 0.51421875 9.27734375 0.5859375 C13.56744079 1.06311513 17.78623667 2.06360815 22 3 C19.69 8.94 17.38 14.88 15 21 C12.36 21 9.72 21 7 21 C5.82504857 18.06574629 4.66149148 15.12710487 3.5 12.1875 C3.16613281 11.35412109 2.83226562 10.52074219 2.48828125 9.66210938 C2.17246094 8.85966797 1.85664063 8.05722656 1.53125 7.23046875 C1.23798828 6.49207764 0.94472656 5.75368652 0.64257812 4.99291992 C0 3 0 3 0 0 Z " fill="#070202" transform="translate(144,219)"/>
<path d="M0 0 C0.33 0.66 0.66 1.32 1 2 C0.1875 3.69921875 0.1875 3.69921875 -1 5.6875 C-3.1829784 9.81340419 -3.1699076 12.41036248 -2 17 C-1.67 17.99 -1.34 18.98 -1 20 C-0.09258271 30.95880882 -3.25007426 37.58989835 -10 46 C-10.33 45.34 -10.66 44.68 -11 44 C-10.53249127 42.62651163 -10.00104875 41.27445457 -9.4375 39.9375 C-7.59195207 34.70285497 -8.37507633 31.17944421 -10 26 C-11.99560271 19.30225842 -12.7101625 14.28877405 -9.375 7.875 C-6.54342514 4.44730412 -3.71217551 2.42719168 0 0 Z " fill="#F9F9F9" transform="translate(243,192)"/>
<path d="M0 0 C2.64012347 1.03719136 3.9132487 1.8832194 5.625 4.1875 C8.58269773 7.69003678 11.96572941 9.9117863 15.7578125 12.44921875 C18 14 18 14 20 16 C8.12 16 -3.76 16 -16 16 C-15.34 15.67 -14.68 15.34 -14 15 C-14 14.34 -14 13.68 -14 13 C-12.4609375 11.484375 -12.4609375 11.484375 -10.375 9.75 C-6.72639996 6.65323448 -3.34103014 3.42455589 0 0 Z " fill="#070202" transform="translate(97,226)"/>
<path d="M0 0 C8.59911868 7.01968872 14.60438416 12.86609019 17 24 C17.99 23.34 18.98 22.68 20 22 C21.24386556 25.73159669 20.77811718 28.18015204 20 32 C19.01 32.495 19.01 32.495 18 33 C18 32.01 18 31.02 18 30 C16.68 30.33 15.36 30.66 14 31 C13.4225 30.113125 12.845 29.22625 12.25 28.3125 C8.39931088 23.58614396 2.57135444 22.0081756 -3 20 C-2.01 21.32 -1.02 22.64 0 24 C-4.83256305 23.58578031 -6.82679218 21.53586014 -10 18 C-3.03672362 17.66306727 2.43345544 18.6969113 9 21 C8.65434409 15.12384946 7.3396794 12.89458407 3 9 C3 8.34 3 7.68 3 7 C2.34 7 1.68 7 1 7 C-2 3.53846154 -2 3.53846154 -2 1 C-1.34 0.67 -0.68 0.34 0 0 Z " fill="#101010" transform="translate(206,151)"/>
<path d="M0 0 C-1.98 0.99 -1.98 0.99 -4 2 C-3.7525 2.9590625 -3.7525 2.9590625 -3.5 3.9375 C-3 6 -3 6 -3 7 C-5.75030252 8.44795797 -8.44140688 9.54502745 -11.40625 10.47265625 C-12.23253906 10.73240234 -13.05882812 10.99214844 -13.91015625 11.25976562 C-14.76480469 11.52466797 -15.61945313 11.78957031 -16.5 12.0625 C-17.35464844 12.33126953 -18.20929688 12.60003906 -19.08984375 12.87695312 C-25.70124648 14.94495039 -25.70124648 14.94495039 -28.15039062 15.39624023 C-30.39138445 15.91665996 -30.39138445 15.91665996 -32 19 C-32 15.37 -32 11.74 -32 8 C-30.75605469 7.68546875 -29.51210937 7.3709375 -28.23046875 7.046875 C-19.96790892 4.9299728 -11.84696494 2.83604495 -3.93359375 -0.3984375 C-2 -1 -2 -1 0 0 Z " fill="#2A0606" transform="translate(277,204)"/>
<path d="M0 0 C10.23 0.66 20.46 1.32 31 2 C29.875 11 29.875 11 27 14 C27 13.34 27 12.68 27 12 C21.39 12 15.78 12 10 12 C11.32 11.34 12.64 10.68 14 10 C13.649375 9.38125 13.29875 8.7625 12.9375 8.125 C12.628125 7.42375 12.31875 6.7225 12 6 C12.33 5.34 12.66 4.68 13 4 C11.7315625 4.0928125 11.7315625 4.0928125 10.4375 4.1875 C6.26380157 3.95984372 3.74567053 2.79792186 0 1 C0 0.67 0 0.34 0 0 Z " fill="#660108" transform="translate(183,213)"/>
<path d="M0 0 C-1.0828125 0.99 -1.0828125 0.99 -2.1875 2 C-7.85160651 7.68019772 -11.67381777 14.55336865 -12.265625 22.62109375 C-12.26046875 23.88050781 -12.2553125 25.13992187 -12.25 26.4375 C-12.25515625 27.69433594 -12.2603125 28.95117188 -12.265625 30.24609375 C-11.98730667 34.17938665 -11.21274662 37.27032288 -10 41 C-11.98 41.495 -11.98 41.495 -14 42 C-16.62290557 35.97830318 -17.376593 31.33750981 -17.125 24.8125 C-16.89076557 17.85319563 -16.89076557 17.85319563 -18 11 C-17.01 10.67 -16.02 10.34 -15 10 C-14.67 10.66 -14.34 11.32 -14 12 C-13.27683594 10.71802734 -13.27683594 10.71802734 -12.5390625 9.41015625 C-11.90742188 8.30542969 -11.27578125 7.20070312 -10.625 6.0625 C-9.99851563 4.96035156 -9.37203125 3.85820312 -8.7265625 2.72265625 C-6.0325743 -1.52555591 -4.59977345 -1.08942003 0 0 Z " fill="#0B0B0A" transform="translate(239,171)"/>
<path d="M0 0 C0 1.32 0 2.64 0 4 C-5.26112076 8.91800419 -8.0511717 10.11234729 -15.125 10.5625 C-16.40632812 10.64628906 -17.68765625 10.73007813 -19.0078125 10.81640625 C-19.99523437 10.87699219 -20.98265625 10.93757813 -22 11 C-22 7 -22 7 -20.0625 4.9375 C-13.59911664 0.84842073 -7.57511933 -0.41318833 0 0 Z " fill="#050201" transform="translate(184,68)"/>
<path d="M0 0 C2.97 0.495 2.97 0.495 6 1 C6.8125 3.1875 6.8125 3.1875 7 6 C4.9375 8.3125 4.9375 8.3125 2 11 C0.45308672 13.00861953 -1.0156561 15.0583026 -2.47265625 17.1328125 C-4.12037415 19.14715816 -5.86719213 20.52308788 -8 22 C-8.33 20.35 -8.66 18.7 -9 17 C-9.99 17.66 -10.98 18.32 -12 19 C-10.79618552 16.50638429 -9.54571278 14.31856917 -8 12 C-7.34 12 -6.68 12 -6 12 C-5.67 10.68 -5.34 9.36 -5 8 C-3.68 7.67 -2.36 7.34 -1 7 C-0.67 4.69 -0.34 2.38 0 0 Z " fill="#C40613" transform="translate(99,210)"/>
<path d="M0 0 C4.18407945 5.07636153 7.19247595 11.90833382 6.87890625 18.57421875 C6.39249497 20.79511985 5.77515665 22.86410639 5 25 C4.62875 26.175625 4.2575 27.35125 3.875 28.5625 C3.441875 29.7690625 3.441875 29.7690625 3 31 C2.67 31 2.34 31 2 31 C2.49869404 25.63108121 3.02227532 20.30764827 4 15 C3.34 15 2.68 15 2 15 C1.67 15.66 1.34 16.32 1 17 C0.34 17 -0.32 17 -1 17 C-1.33 18.32 -1.66 19.64 -2 21 C-2.66 21 -3.32 21 -4 21 C-3.54034292 13.69303751 -2.11670277 7.00242552 0 0 Z " fill="#800C15" transform="translate(117,153)"/>
<path d="M0 0 C0.66 0.33 1.32 0.66 2 1 C2.625 3.0625 2.625 3.0625 3 5 C2.25556641 5.47566406 2.25556641 5.47566406 1.49609375 5.9609375 C-4.48025424 10.06613289 -8.14713859 14.90766289 -12 21 C-12.66 20.67 -13.32 20.34 -14 20 C-14 19.01 -14 18.02 -14 17 C-15.32 17.33 -16.64 17.66 -18 18 C-14.55033273 10.15984712 -6.8338103 4.79820723 0 0 Z " fill="#200505" transform="translate(160,75)"/>
<path d="M0 0 C0.99 0 1.98 0 3 0 C7.73563742 5.25949111 8.69530512 8.99486919 8.625 15.9375 C8.625 20.8018509 8.77102064 24.87733325 10.5859375 29.44140625 C11.05257812 30.61574219 11.51921875 31.79007813 12 33 C11.67 33.66 11.34 34.32 11 35 C10.34 35 9.68 35 9 35 C5.3102502 28.82181429 4.49056794 22.93536345 4.41625977 15.84960938 C4.30064804 10.77519202 3.15747911 7.49063082 1 3 C0.67 2.01 0.34 1.02 0 0 Z " fill="#060606" transform="translate(204,175)"/>
<path d="M0 0 C1.32 0.33 2.64 0.66 4 1 C3.04367001 2.29315061 2.08486149 3.58446853 1.125 4.875 C0.59132812 5.59429687 0.05765625 6.31359375 -0.4921875 7.0546875 C-2 9 -2 9 -4 11 C-2.02 11 -0.04 11 2 11 C0.35 13.97 -1.3 16.94 -3 20 C-6 18 -6 18 -6.5625 15.4375 C-6.706875 14.633125 -6.85125 13.82875 -7 13 C-7.66 12.67 -8.32 12.34 -9 12 C-8.1875 10.0625 -8.1875 10.0625 -7 8 C-6.01 7.67 -5.02 7.34 -4 7 C-2.89163577 5.11683841 -2.89163577 5.11683841 -2 3 C-1.34 2.01 -0.68 1.02 0 0 Z " fill="#101010" transform="translate(249,176)"/>
<path d="M0 0 C0 2 0 4 0 6 C0.99 6 1.98 6 3 6 C2.82374165 8.37948772 2.30280227 9.70225849 0.59765625 11.37890625 C-0.90649092 12.62115486 -2.45129851 13.81376056 -4 15 C-4.33 13.35 -4.66 11.7 -5 10 C-5.99 10.66 -6.98 11.32 -8 12 C-6.79618552 9.50638429 -5.54571278 7.31856917 -4 5 C-3.34 5 -2.68 5 -2 5 C-1.855625 4.360625 -1.71125 3.72125 -1.5625 3.0625 C-1 1 -1 1 0 0 Z " fill="#B70C1B" transform="translate(95,217)"/>
<path d="M0 0 C2.68756955 -0.02720824 5.37485798 -0.0469388 8.0625 -0.0625 C8.81466797 -0.07087891 9.56683594 -0.07925781 10.34179688 -0.08789062 C16.78390392 -0.11577853 22.81793218 0.39711446 28.9375 2.5625 C30.09572266 2.96662109 30.09572266 2.96662109 31.27734375 3.37890625 C32.13005859 3.68634766 32.13005859 3.68634766 33 4 C32.67 4.66 32.34 5.32 32 6 C31.2793335 5.88406494 30.55866699 5.76812988 29.81616211 5.64868164 C26.52337512 5.11932784 23.23043919 4.59090612 19.9375 4.0625 C18.80376953 3.88009766 17.67003906 3.69769531 16.50195312 3.50976562 C11.00682797 2.62862311 5.51324398 1.76017152 0 1 C0 0.67 0 0.34 0 0 Z " fill="#210101" transform="translate(138,205)"/>
<path d="M0 0 C0.66 0 1.32 0 2 0 C2.33 3.96 2.66 7.92 3 12 C4.32 12.33 5.64 12.66 7 13 C7 13.66 7 14.32 7 15 C4.6875 15 4.6875 15 2 14 C0.61706907 11.44481903 -0.21791649 8.79133871 -1 6 C-2.98 6.33 -4.96 6.66 -7 7 C-4.66666667 4.66666667 -2.33333333 2.33333333 0 0 Z " fill="#C31424" transform="translate(79,216)"/>
<path d="M0 0 C1.32 0.66 2.64 1.32 4 2 C4 5.90838866 2.49432124 7.11594107 0 10 C-0.33 8.68 -0.66 7.36 -1 6 C-2.32 6.33 -3.64 6.66 -5 7 C-3.70700306 4.11562221 -2.34058637 2.12780579 0 0 Z " fill="#2D0909" transform="translate(147,86)"/>
<path d="M0 0 C10.23 0.66 20.46 1.32 31 2 C31 2.33 31 2.66 31 3 C7.47212978 4.8985025 7.47212978 4.8985025 0 1 C0 0.67 0 0.34 0 0 Z " fill="#68252B" transform="translate(183,213)"/>
<path d="M0 0 C0.66 0 1.32 0 2 0 C1.56179109 4.55737263 1.14958831 7.57653445 -2 11 C-2 10.34 -2 9.68 -2 9 C-7.61 9 -13.22 9 -19 9 C-19 8.67 -19 8.34 -19 8 C-17.85660156 7.95101562 -16.71320313 7.90203125 -15.53515625 7.8515625 C-14.04424527 7.77654811 -12.55336108 7.70099972 -11.0625 7.625 C-10.30775391 7.5940625 -9.55300781 7.563125 -8.77539062 7.53125 C-6.84492605 7.4273685 -4.92057919 7.22104386 -3 7 C-2.67 6.34 -2.34 5.68 -2 5 C-1.34 5 -0.68 5 0 5 C0 3.35 0 1.7 0 0 Z " fill="#51090F" transform="translate(212,216)"/>
<path d="M0 0 C-1.65 2.64 -3.3 5.28 -5 8 C-8 6 -8 6 -8.8125 4 C-8.874375 3.34 -8.93625 2.68 -9 2 C-6.32750728 -0.67249272 -3.5165484 -1.7582742 0 0 Z " fill="#1B1B1B" transform="translate(251,188)"/>
<path d="M0 0 C1.41655793 -0.0272415 2.83327045 -0.04650467 4.25 -0.0625 C5.43335938 -0.07990234 5.43335938 -0.07990234 6.640625 -0.09765625 C8.90691002 -0.00385306 10.8288895 0.36758937 13 1 C12.67 1.99 12.34 2.98 12 4 C9.525 3.01 9.525 3.01 7 2 C7.99 3.32 8.98 4.64 10 6 C5.16743695 5.58578031 3.17320782 3.53586014 0 0 Z " fill="#262626" transform="translate(196,169)"/>
<path d="M0 0 C-1.98 0.99 -1.98 0.99 -4 2 C-3.835 2.639375 -3.67 3.27875 -3.5 3.9375 C-3 6 -3 6 -3 7 C-4.32 7.33 -5.64 7.66 -7 8 C-7.99 6.02 -8.98 4.04 -10 2 C-8.71211992 1.46987262 -7.41953322 0.9511671 -6.125 0.4375 C-5.40570313 0.14746094 -4.68640625 -0.14257812 -3.9453125 -0.44140625 C-2 -1 -2 -1 0 0 Z " fill="#1D1010" transform="translate(277,204)"/>
<path d="M0 0 C1.32 0.33 2.64 0.66 4 1 C3.01 3.97 2.02 6.94 1 10 C0.01 10 -0.98 10 -2 10 C-1.125 2.25 -1.125 2.25 0 0 Z " fill="#111111" transform="translate(231,196)"/>
<path d="M0 0 C6.625 -0.25 6.625 -0.25 10 2 C8 3.33333333 6 4.66666667 4 6 C3.34 5.67 2.68 5.34 2 5 C2 4.01 2 3.02 2 2 C1.34 2 0.68 2 0 2 C0 1.34 0 0.68 0 0 Z " fill="#920309" transform="translate(137,207)"/>
<path d="M0 0 C0.66 0.33 1.32 0.66 2 1 C2.625 3.0625 2.625 3.0625 3 5 C1.02 5.99 -0.96 6.98 -3 8 C-4 6 -4 6 -3.75 4 C-3 2 -3 2 0 0 Z " fill="#1B0C0B" transform="translate(160,75)"/>
<path d="M0 0 C0.99 0 1.98 0 3 0 C4.38671875 1.53125 4.38671875 1.53125 5.6875 3.5 C6.12449219 4.1496875 6.56148437 4.799375 7.01171875 5.46875 C7.33785156 5.9740625 7.66398438 6.479375 8 7 C6.68 7.99 5.36 8.98 4 10 C1.125 3.375 1.125 3.375 0 0 Z " fill="#141414" transform="translate(204,175)"/>
<path d="M0 0 C0.33 0 0.66 0 1 0 C1.08086147 1.79093191 1.13912702 3.58289628 1.1875 5.375 C1.22230469 6.37273437 1.25710937 7.37046875 1.29296875 8.3984375 C1.19628906 9.25695312 1.09960938 10.11546875 1 11 C0.01 11.66 -0.98 12.32 -2 13 C-2.19294408 8.17639811 -1.75747614 4.50353262 0 0 Z " fill="#280A09" transform="translate(95,206)"/>
<path d="M0 0 C0.66 0 1.32 0 2 0 C3.32 3.96 4.64 7.92 6 12 C5.34 12.66 4.68 13.32 4 14 C3.32471777 12.42032193 2.66010306 10.83608097 2 9.25 C1.62875 8.36828125 1.2575 7.4865625 0.875 6.578125 C0 4 0 4 0 0 Z " fill="#250C0D" transform="translate(121,160)"/>
<path d="M0 0 C0.66 0 1.32 0 2 0 C3.625 2.5 3.625 2.5 5 5 C2.03 5 -0.94 5 -4 5 C-2.71937515 3.2925002 -1.38232443 1.62626404 0 0 Z " fill="#190404" transform="translate(67,237)"/>
<path d="M0 0 C0.33 0.66 0.66 1.32 1 2 C3.01669827 3.13350534 3.01669827 3.13350534 5 4 C-3.42857143 6.42857143 -3.42857143 6.42857143 -8 5 C-8 4.34 -8 3.68 -8 3 C-5.69 3.33 -3.38 3.66 -1 4 C-0.67 2.68 -0.34 1.36 0 0 Z " fill="#9A121A" transform="translate(143,212)"/>
<path d="M0 0 C0 0.66 0 1.32 0 2 C-0.66 2 -1.32 2 -2 2 C-2.33 4.31 -2.66 6.62 -3 9 C-3.66 9 -4.32 9 -5 9 C-5 6.36 -5 3.72 -5 1 C-3 0 -3 0 0 0 Z " fill="#AC1421" transform="translate(101,208)"/>
<path d="M0 0 C2.62187494 1.04874998 3.79371361 1.64931313 5.25 4.125 C5.4975 4.74375 5.745 5.3625 6 6 C5.34 6 4.68 6 4 6 C3.67 6.66 3.34 7.32 3 8 C0 2.25 0 2.25 0 0 Z " fill="#121212" transform="translate(242,141)"/>
<path d="M0 0 C3.63 0.33 7.26 0.66 11 1 C9.515 2.485 9.515 2.485 8 4 C5.36 3.01 2.72 2.02 0 1 C0 0.67 0 0.34 0 0 Z " fill="#681117" transform="translate(183,213)"/>
<path d="M0 0 C0.66 0.33 1.32 0.66 2 1 C0.02 3.97 0.02 3.97 -2 7 C-3.32 6.67 -4.64 6.34 -6 6 C-4.02 4.02 -2.04 2.04 0 0 Z " fill="#290100" transform="translate(97,226)"/>
<path d="M0 0 C0.33 0 0.66 0 1 0 C1 1.98 1 3.96 1 6 C-0.32 5.67 -1.64 5.34 -3 5 C-1.125 1.125 -1.125 1.125 0 0 Z " fill="#D90313" transform="translate(90,226)"/>
</svg>
