<?xml version="1.0" encoding="UTF-8"?>
<svg version="1.1" xmlns="http://www.w3.org/2000/svg" width="326" height="327">
<path d="M0 0 C0.87398437 0.66644531 1.74796875 1.33289063 2.6484375 2.01953125 C5.14324598 3.96548187 7.57981869 5.96216004 10 8 C10.83273437 8.69738281 11.66546875 9.39476562 12.5234375 10.11328125 C18.77468487 15.52782321 23.99443997 21.42609376 29 28 C29.59425781 28.77859375 30.18851562 29.5571875 30.80078125 30.359375 C39.46996501 42.23715321 46.06540589 55.1831365 51 69 C51.55107422 70.51207031 51.55107422 70.51207031 52.11328125 72.0546875 C57.03438637 86.68500002 59.35031759 101.84624536 59.4375 117.25 C59.44749023 118.27254883 59.45748047 119.29509766 59.46777344 120.34863281 C59.32411559 132.87149232 55.24464284 143.47041369 46.8125 152.8125 C38.90509421 160.00626945 27.38079422 162.74298355 17.40063477 166.02197266 C15.17124961 166.75534569 12.94587905 167.50005845 10.72070312 168.24609375 C9.28668059 168.72202437 7.85244322 169.19730828 6.41796875 169.671875 C5.43342964 170.00152252 5.43342964 170.00152252 4.42900085 170.33782959 C0.64061362 171.57498611 -3.05354358 172.44843058 -7 173 C-5.22759257 178.61262354 -3.27862332 182.29487097 0.79296875 186.5546875 C2 188 2 188 2 190 C2.598125 190.28875 3.19625 190.5775 3.8125 190.875 C6 192 6 192 9 194 C9 194.66 9 195.32 9 196 C-12.45 196 -33.9 196 -56 196 C-56 195.34 -56 194.68 -56 194 C-54.79260954 192.889318 -53.53265169 191.83534451 -52.25 190.8125 C-48.36416472 187.52607548 -46.19431683 184.57149339 -44 180 C-44 179.67 -44 179.34 -44 179 C-45.12378052 179.02610352 -45.12378052 179.02610352 -46.27026367 179.05273438 C-55.36974722 179.16899517 -64.27923511 178.44464134 -73.3125 177.5 C-74.74668504 177.35487703 -76.18092976 177.21034261 -77.61523438 177.06640625 C-81.07753458 176.71769161 -84.53896874 176.36111768 -88 176 C-88.14115234 176.76151367 -88.28230469 177.52302734 -88.42773438 178.30761719 C-89.10292214 181.48422584 -90.23381073 184.2612044 -91.5 187.25 C-91.9434375 188.30703125 -92.386875 189.3640625 -92.84375 190.453125 C-94 193 -94 193 -95 194 C-96.99958364 194.04080783 -99.00045254 194.04254356 -101 194 C-110 177 -110 177 -110 171 C-117.96770268 170.14368604 -125.86329602 169.78833351 -133.875 169.75 C-134.97585937 169.729375 -136.07671875 169.70875 -137.2109375 169.6875 C-138.273125 169.68234375 -139.3353125 169.6771875 -140.4296875 169.671875 C-141.85643799 169.65785645 -141.85643799 169.65785645 -143.31201172 169.64355469 C-146.54524539 170.0723032 -148.38027028 171.08197356 -151 173 C-153.26100846 175.73820516 -153.26100846 175.73820516 -152.85546875 178.43359375 C-150.70023324 184.89930027 -143.72402298 189.67207966 -138 193 C-137.01 193.33 -136.02 193.66 -135 194 C-135.33 194.66 -135.66 195.32 -136 196 C-153.82 196 -171.64 196 -190 196 C-175.53927028 220.1012162 -147.43800724 234.95030603 -121 242 C-119.85273438 242.32097656 -118.70546875 242.64195312 -117.5234375 242.97265625 C-97.66455419 247.6237019 -74.80616729 246.30044999 -55 242 C-53.58080311 241.7183771 -52.16153199 241.43712807 -50.7421875 241.15625 C-27.59065005 236.34574802 -7.481299 225.60513879 12.67578125 213.6328125 C13.66723145 213.04443604 14.65868164 212.45605957 15.68017578 211.84985352 C17.66345232 210.67112584 19.6449429 209.48938726 21.62451172 208.30444336 C22.53604004 207.76182861 23.44756836 207.21921387 24.38671875 206.66015625 C25.20358154 206.17168213 26.02044434 205.68320801 26.86206055 205.17993164 C29 204 29 204 32 203 C28.36580543 210.85340583 22.16998861 217.07463649 16 223 C15.2059375 223.80566406 14.411875 224.61132812 13.59375 225.44140625 C-14.02072767 252.6815913 -52.47627103 266.22529038 -90.90039062 266.25146484 C-113.55976466 265.88169699 -134.6275187 260.67817795 -155 251 C-156.05832031 250.51660156 -157.11664063 250.03320312 -158.20703125 249.53515625 C-191.45935501 233.80240543 -217.10691345 203.02499656 -229.46484375 168.7421875 C-234.91713664 152.58749945 -237.23457669 136.61899398 -237.25 119.625 C-237.25100708 118.85989105 -237.25201416 118.0947821 -237.25305176 117.30648804 C-237.24316787 106.23144377 -236.77418699 95.77388998 -234 85 C-233.7215625 83.76636719 -233.443125 82.53273438 -233.15625 81.26171875 C-224.39108032 44.87870839 -200.44119702 12.66675371 -168.61328125 -6.84375 C-167.41054546 -7.56532659 -166.20612286 -8.2840993 -165 -9 C-164.41911621 -9.34804688 -163.83823242 -9.69609375 -163.23974609 -10.0546875 C-113.5593677 -39.39685936 -45.60932112 -35.55424024 0 0 Z M-185.50488281 33.29052734 C-210.65994831 62.05208329 -219.24022017 96.41293413 -217 134 C-214.987675 153.86574865 -206.83118598 179.14174575 -193 194 C-189.83203674 194.30440939 -189.83203674 194.30440939 -187.3125 191.9375 C-184.65850355 189.18929456 -184.65850355 189.18929456 -185 185.6875 C-185 180.67631996 -183.26485631 177.74016952 -180 174 C-178.62320137 173.11547927 -177.22630657 172.26157669 -175.8125 171.4375 C-172.98274964 169.44920755 -172.10220147 168.40555925 -171.24443054 165.00172424 C-171.11695938 163.80820847 -170.98948822 162.61469269 -170.8581543 161.38500977 C-170.78420032 160.72649552 -170.71024633 160.06798128 -170.63405132 159.38951206 C-170.40226092 157.2612125 -170.19804938 155.13168734 -170 153 C-169.9330405 152.30940868 -169.86608101 151.61881737 -169.79709244 150.90729904 C-169.30073672 145.74286985 -168.87204172 140.57385898 -168.45703125 135.40234375 C-168.32301048 133.75337929 -168.18895102 132.10441797 -168.05485535 130.45545959 C-167.77715904 127.02612141 -167.50294689 123.5965239 -167.23071289 120.16674805 C-166.88421791 115.81036018 -166.52428608 111.45519345 -166.16115284 107.10016537 C-165.88031248 103.7040214 -165.60907369 100.3071573 -165.34033775 96.91003609 C-165.21183214 95.30528378 -165.0799364 93.7007986 -164.94431496 92.096632 C-163.50117083 74.93926438 -163.11825254 59.16386411 -174.27734375 44.9140625 C-176.74307153 42.17436496 -179.39368497 39.60631503 -182 37 C-167.48 36.67 -152.96 36.34 -138 36 C-137.01 38.97 -136.02 41.94 -135 45 C-134.20867984 46.91221634 -133.38605123 48.81207071 -132.51953125 50.69140625 C-132.07802734 51.65498047 -131.63652344 52.61855469 -131.18164062 53.61132812 C-130.72982422 54.58521484 -130.27800781 55.55910156 -129.8125 56.5625 C-129.34908203 57.57119141 -128.88566406 58.57988281 -128.40820312 59.61914062 C-127.27627662 62.0813725 -126.1401475 64.54156694 -125 67 C-124.34 67 -123.68 67 -123 67 C-122.74420166 66.47680176 -122.48840332 65.95360352 -122.22485352 65.41455078 C-117.18216012 55.20334941 -112.40762738 45.88495072 -104 38 C-103.30519531 37.29875 -102.61039062 36.5975 -101.89453125 35.875 C-91.9969647 26.35602889 -81.53578646 21.99438311 -68 21 C-70.31082874 24.96517204 -71.96522547 27.64638152 -76 30 C-78.76036548 30.35893297 -81.50275561 30.50738372 -84.28125 30.66796875 C-90.21764757 31.39295983 -94.57134257 35.18337753 -99 39 C-106.95998924 49.34447941 -118.65613985 68.30339454 -117.81103516 82.08056641 C-116.9934749 87.09395972 -114.82970306 91.57416668 -112.7734375 96.18359375 C-112.34753326 97.15676041 -111.92162903 98.12992706 -111.4828186 99.13258362 C-110.12160869 102.23783889 -108.74856199 105.33769165 -107.375 108.4375 C-106.47446631 110.48597921 -105.57471935 112.53480446 -104.67578125 114.58398438 C-102.93391084 118.55133886 -101.18754501 122.51665656 -99.43652344 126.47998047 C-97.23094856 131.47293109 -95.0375495 136.47110232 -92.8515625 141.47265625 C-92.5576059 142.14517929 -92.26364929 142.81770233 -91.96078491 143.51060486 C-91.30694411 145.00696251 -90.65342768 146.5034619 -90 148 C-86.73334493 145.30799415 -85.31292628 141.77470425 -83.62890625 138 C-83.15151253 136.95126709 -83.15151253 136.95126709 -82.66447449 135.88134766 C-81.62381805 133.59051934 -80.59303145 131.29539869 -79.5625 129 C-78.84000301 127.40342637 -78.11701671 125.80707407 -77.39355469 124.2109375 C-75.25180615 119.47867945 -73.12350845 114.74046687 -71 110 C-70.70510681 109.34193359 -70.41021362 108.68386719 -70.10638428 108.00585938 C-66.86785654 100.77495358 -63.65503556 93.53282601 -60.453125 86.28564453 C-58.40920004 81.66414887 -56.35613871 77.04673346 -54.30273438 72.42944336 C-53.28248435 70.13500372 -52.26293168 67.84025385 -51.24414062 65.54516602 C-48.99692578 60.48330708 -46.74416445 55.42425302 -44.46875 50.375 C-44.09008789 49.53203369 -43.71142578 48.68906738 -43.32128906 47.82055664 C-42.62841976 46.27928561 -41.93264962 44.73931392 -41.23339844 43.20092773 C-39.56781861 39.73773036 -39.56781861 39.73773036 -39 36 C-37.94941406 36.05800781 -36.89882812 36.11601563 -35.81640625 36.17578125 C-28.10214336 36.46972792 -22.191397 36.67355776 -15.6015625 32.09375 C-14 31 -14 31 -12 31 C-12.33 32.65 -12.66 34.3 -13 36 C-6.73 36.33 -0.46 36.66 6 37 C4.80375 38.010625 3.6075 39.02125 2.375 40.0625 C-5.3592318 46.90852497 -11.15204373 53.39510425 -12.21142578 64.14550781 C-12.97321275 77.18052933 -12.45026602 89.99568902 -4.4921875 100.82421875 C0.09933749 107.51919105 3.04050437 116.15716779 1.59375 124.28125 C0.12038015 129.40296424 -2.35209376 133.25444381 -5.6953125 137.37109375 C-7.07742482 138.97976573 -7.07742482 138.97976573 -8 141 C-6.02 140.67 -4.04 140.34 -2 140 C-2.42152344 140.60585937 -2.84304687 141.21171875 -3.27734375 141.8359375 C-7.19467416 147.82714872 -9.29183044 152.76768042 -9 160 C-8.68386288 161.33751494 -8.35289761 162.67171081 -8 164 C-0.55330727 163.57594941 6.05924332 162.02478567 13.125 159.6875 C14.06214844 159.39166016 14.99929688 159.09582031 15.96484375 158.79101562 C24.8322783 155.91995115 33.41613054 152.85143067 39 145 C49.41794723 123.46957573 40.2156952 100.03028163 33.10546875 78.875 C28.68719972 66.2385465 22.93273377 54.81471778 15 44 C14.41581299 43.1958667 14.41581299 43.1958667 13.81982422 42.37548828 C-6.76742381 14.18754924 -37.11187409 -3.14081188 -71.55078125 -8.55859375 C-114.56583637 -13.58798357 -156.31679001 1.1090231 -185.50488281 33.29052734 Z M-27.45629883 46.01367188 C-33.91138668 52.67673639 -38.06619508 60.22031489 -38.25 69.625 C-38.08418797 79.11773863 -34.39874545 86.32668994 -29.921875 94.45825195 C-24.83287729 103.81379508 -22.22282421 112.7901397 -25.0625 123.3125 C-25.95302003 126.81521211 -26.01966251 127.7698803 -25 131 C-16.38232252 117.49897196 -12.47864526 105.16439408 -14 89 C-15.54259572 82.26791106 -18.75717783 76.18135745 -21.94921875 70.09375 C-25.48849061 63.04152056 -24.18742651 56.51762968 -21.8671875 49.3359375 C-20.79194267 46.43955729 -19.43495879 43.73325484 -18 41 C-18 40.34 -18 39.68 -18 39 C-21.8482035 39 -24.82555068 43.39112895 -27.45629883 46.01367188 Z M-153 66 C-153.7744529 70.21359514 -154.19576694 74.31161589 -154.38891602 78.59008789 C-154.44890274 79.88326431 -154.50888947 81.17644073 -154.57069397 82.50880432 C-154.63197912 83.91341229 -154.69304388 85.3180299 -154.75390625 86.72265625 C-154.81955292 88.1883577 -154.88538796 89.65405072 -154.95140076 91.11973572 C-155.08910685 94.19699014 -155.22406796 97.27435009 -155.35717773 100.35180664 C-155.52525855 104.23142119 -155.70078736 108.11065602 -155.87833595 111.98984718 C-156.6225442 128.33134885 -157.24571579 144.63675277 -157 161 C-155.68 161 -154.36 161 -153 161 C-149.25434551 153.27885498 -146.38881324 145.53035212 -143.9375 137.3125 C-143.59533447 136.17780273 -143.25316895 135.04310547 -142.90063477 133.87402344 C-136.39999705 113.73742009 -136.39999705 113.73742009 -140.16015625 93.5390625 C-140.46948593 92.74849457 -140.77881561 91.95792664 -141.09751892 91.1434021 C-142.0803985 88.63508858 -143.07131248 86.13004057 -144.0625 83.625 C-144.73295607 81.91817849 -145.40288367 80.21114929 -146.07226562 78.50390625 C-147.70873609 74.3335085 -149.35241643 70.16601915 -151 66 C-151.66 66 -152.32 66 -153 66 Z M-44 73 C-44 76 -44 76 -44 76 Z M-45 85 C-47.36404471 90.76987184 -49.16496277 95.91404912 -47 102 C-44.58054048 106.22619877 -41.60814395 109.65098484 -37.8125 112.6875 C-33.11122394 116.55299365 -31.69560699 120.01777988 -31 126 C-30.01 125.505 -30.01 125.505 -29 125 C-28.50930987 116.2947936 -29.22250764 108.98038272 -35 102.125 C-36.49920766 100.50866674 -38.03973501 98.96160223 -39.625 97.4296875 C-42.03686793 94.921893 -42.22613909 92.73860907 -42.5625 89.375 C-42.64628906 88.55773437 -42.73007813 87.74046875 -42.81640625 86.8984375 C-42.87699219 86.27195312 -42.93757812 85.64546875 -43 85 C-43.66 85 -44.32 85 -45 85 Z M-54 97 C-58.18424008 105.88747712 -62.08905838 114.84699648 -65.8125 123.9375 C-66.33020926 125.19910237 -66.84803325 126.46065766 -67.3659668 127.72216797 C-68.15010033 129.63214899 -68.93399469 131.54222395 -69.71662903 133.45281982 C-71.39075008 137.53511821 -73.09330443 141.60447124 -74.8125 145.66796875 C-75.23684326 146.67931885 -75.66118652 147.69066895 -76.09838867 148.73266602 C-76.89077192 150.62033229 -77.69010785 152.5050994 -78.49731445 154.38647461 C-78.8449585 155.22057861 -79.19260254 156.05468262 -79.55078125 156.9140625 C-79.85669189 157.6354541 -80.16260254 158.3568457 -80.4777832 159.10009766 C-81.24353336 161.19665629 -81.24353336 161.19665629 -80 164 C-66.23364024 166.61454793 -53.03164281 168.68633035 -39 168 C-38.505 166.515 -38.505 166.515 -38 165 C-38.97149911 162.98703085 -38.97149911 162.98703085 -40.375 160.8125 C-42.85287108 156.17670274 -43.45835238 152.05606246 -43.625 146.875 C-43.91992107 136.91044577 -43.91992107 136.91044577 -49.12890625 128.78515625 C-53.2613661 124.96655517 -53.2613661 124.96655517 -58 122 C-51.15182898 122.48641215 -44.66957927 123.35993952 -38 125 C-37.45675874 122.16307344 -37.25292009 120.7409756 -38 118 C-40.0625785 115.57162232 -42.32586247 113.49795019 -44.671875 111.34375 C-48.0205817 107.97256876 -49.89733245 104.2053351 -52 100 C-52.66 99.01 -53.32 98.02 -54 97 Z M-8 103 C-8.03738281 103.95261719 -8.07476562 104.90523437 -8.11328125 105.88671875 C-8.17902344 107.14097656 -8.24476563 108.39523438 -8.3125 109.6875 C-8.37050781 110.92886719 -8.42851562 112.17023438 -8.48828125 113.44921875 C-9.38036028 119.63929387 -12.45328528 122.62317382 -16.9375 126.75 C-23.84491211 133.5063754 -26.81948715 140.31384534 -27.125 149.9375 C-27.08592209 153.36984341 -26.67428368 156.62858159 -26 160 C-25.34 160 -24.68 160 -24 160 C-23.92523438 159.3709375 -23.85046875 158.741875 -23.7734375 158.09375 C-22.30495162 148.53419488 -18.06572136 143.70438347 -10.875 137.5 C-5.08834249 132.40181529 -1.94835611 128.06236058 -1.4375 120.25 C-1.66216571 113.97889623 -4.31683428 108.57715161 -7 103 C-7.33 103 -7.66 103 -8 103 Z M-49 125 C-48.59007812 125.45890625 -48.18015625 125.9178125 -47.7578125 126.390625 C-47.21898437 127.00421875 -46.68015625 127.6178125 -46.125 128.25 C-45.32449219 129.15492188 -45.32449219 129.15492188 -44.5078125 130.078125 C-41.13839408 134.37282412 -40.84399123 137.09504676 -41.125 142.5625 C-41.23743683 153.40141066 -38.23527033 160.4103226 -30.90234375 168.3203125 C-29.00617536 170.21508729 -29.00617536 170.21508729 -26 171 C-26.28875 170.278125 -26.5775 169.55625 -26.875 168.8125 C-27.431875 167.4203125 -27.431875 167.4203125 -28 166 C-28.34828857 165.22503174 -28.69657715 164.45006348 -29.05541992 163.65161133 C-30.058261 160.83645059 -30.23963377 158.7380722 -30.23828125 155.76171875 C-30.25439453 154.77623047 -30.27050781 153.79074219 -30.28710938 152.77539062 C-30.30393958 150.72857819 -30.30928227 148.68163678 -30.30273438 146.63476562 C-30.43889374 139.89268099 -31.39142136 135.10318116 -36 130 C-38.46088658 128.06452067 -38.46088658 128.06452067 -41.125 127 C-41.97320312 126.608125 -42.82140625 126.21625 -43.6953125 125.8125 C-46.0642684 124.83375718 -46.0642684 124.83375718 -49 125 Z M-129 126 C-129.21914062 126.54785156 -129.43828125 127.09570312 -129.6640625 127.66015625 C-130.34850936 129.37127341 -131.03345927 131.08218938 -131.71875 132.79296875 C-132.65977428 135.14839842 -133.59705882 137.50514568 -134.53125 139.86328125 C-134.79470215 140.52642334 -135.0581543 141.18956543 -135.32958984 141.87280273 C-135.85214305 143.18816763 -136.37334433 144.50407055 -136.89306641 145.82055664 C-137.90297485 148.35865989 -138.89527406 150.81491831 -140.2421875 153.1953125 C-141.34517419 155.31710819 -141.34517419 155.31710819 -140 159 C-132.08 158.67 -124.16 158.34 -116 158 C-118.23796462 151.28610615 -120.55835444 144.67363012 -123.0625 138.0625 C-123.41376953 137.11826172 -123.76503906 136.17402344 -124.12695312 135.20117188 C-124.63838867 133.85055664 -124.63838867 133.85055664 -125.16015625 132.47265625 C-125.46574463 131.66062744 -125.77133301 130.84859863 -126.08618164 130.01196289 C-126.93451977 127.8312153 -126.93451977 127.8312153 -129 126 Z M-31 128 C-30 130 -30 130 -30 130 Z M-11 146 C-12.29854721 147.07507629 -13.58858361 148.16043736 -14.875 149.25 C-15.59429687 149.85328125 -16.31359375 150.4565625 -17.0546875 151.078125 C-19.55725524 153.55054132 -20.78704088 155.55353738 -21.30078125 159.04296875 C-21.32860074 164.13393628 -20.43189821 168.04373739 -18.671875 172.80078125 C-17.1388031 177.81891775 -17.73951696 182.95806785 -19 188 C-13.61571807 183.17271275 -11.2074936 177.73488485 -10.8125 170.625 C-10.83175338 167.05621467 -10.83175338 167.05621467 -12 164.0625 C-13.31379012 160.03901775 -13.33641416 157.23881841 -13 153 C-11.4375 150.125 -11.4375 150.125 -10 148 C-10.33 147.34 -10.66 146.68 -11 146 Z " fill="#010101" transform="translate(253,47)"/>
<path d="M0 0 C0.89203125 0.00902344 1.7840625 0.01804687 2.703125 0.02734375 C3.37859375 0.03894531 4.0540625 0.05054687 4.75 0.0625 C3.99583149 4.30239856 2.23175132 6.13054057 -1.0234375 8.81640625 C-4.44988998 10.73401737 -7.73317454 10.64839133 -11.59375 10.796875 C-16.91904369 11.32940437 -20.62533476 14.24706291 -24.25 18.0625 C-24.91 18.0625 -25.57 18.0625 -26.25 18.0625 C-26.51296875 18.61292969 -26.7759375 19.16335937 -27.046875 19.73046875 C-28.40645326 22.36575519 -29.94820376 24.84808855 -31.5 27.375 C-35.58403112 34.33486969 -38.45471132 41.52113205 -41.25 49.0625 C-41.60449219 49.95582031 -41.95898438 50.84914062 -42.32421875 51.76953125 C-42.60910156 52.52621094 -42.89398438 53.28289062 -43.1875 54.0625 C-43.42339844 54.68125 -43.65929687 55.3 -43.90234375 55.9375 C-45.03735967 62.87512537 -41.76501294 69.11463964 -39.0234375 75.28125 C-38.59753326 76.25678833 -38.17162903 77.23232666 -37.7328186 78.23742676 C-36.3715672 81.34937292 -34.99827997 84.45584627 -33.625 87.5625 C-32.72451125 89.61946386 -31.82476464 91.67675278 -30.92578125 93.734375 C-26.17618681 104.57866259 -21.33087096 115.36906376 -16.25 126.0625 C-7.68173423 107.71180176 0.5925694 89.24039657 8.79466248 70.72390747 C12.07232749 63.32781526 15.37548534 55.94326352 18.6875 48.5625 C19.47568115 46.80583008 19.47568115 46.80583008 20.27978516 45.01367188 C24.76304053 35.02688305 29.25341432 25.04329355 33.75 15.0625 C35.32587891 15.04123047 35.32587891 15.04123047 36.93359375 15.01953125 C44.57516958 14.79930244 50.60655322 14.60656235 57.05078125 10.0234375 C57.61152344 9.70632812 58.17226562 9.38921875 58.75 9.0625 C59.74 9.3925 60.73 9.7225 61.75 10.0625 C61.09 11.7125 60.43 13.3625 59.75 15.0625 C66.35 15.0625 72.95 15.0625 79.75 15.0625 C74.75 20.0625 74.75 20.0625 72.90625 21.73046875 C66.86080601 27.27687845 62.2636346 34.71288683 61.58886719 43.05444336 C61.19858636 62.54243252 61.19858636 62.54243252 69.2578125 79.88671875 C73.84933749 86.58169105 76.79050437 95.21966779 75.34375 103.34375 C73.85607229 108.51520108 71.34082231 112.38178359 67.95703125 116.53125 C66.64682342 117.86842697 66.64682342 117.86842697 66.75 119.0625 C69.225 118.5675 69.225 118.5675 71.75 118.0625 C70.69565932 121.04979859 69.63138776 123.21705534 67.6875 125.75 C64.50219066 131.19585146 64.75 136.87238533 64.75 143.0625 C74.89520949 140.77830912 84.85842282 138.29661567 94.75 135.0625 C94.42 137.3725 94.09 139.6825 93.75 142.0625 C90.75 143.0625 90.75 143.0625 87.75 142.0625 C87.42 142.7225 87.09 143.3825 86.75 144.0625 C85.76 144.0625 84.77 144.0625 83.75 144.0625 C83.75 145.0525 83.75 146.0425 83.75 147.0625 C81.12605694 147.89929277 78.50095616 148.73206942 75.875 149.5625 C75.12863281 149.80097656 74.38226563 150.03945312 73.61328125 150.28515625 C67.9765625 152.0625 67.9765625 152.0625 65.75 152.0625 C67.52240743 157.67512354 69.47137668 161.35737097 73.54296875 165.6171875 C74.75 167.0625 74.75 167.0625 74.75 169.0625 C75.348125 169.35125 75.94625 169.64 76.5625 169.9375 C78.75 171.0625 78.75 171.0625 81.75 173.0625 C81.75 173.7225 81.75 174.3825 81.75 175.0625 C60.3 175.0625 38.85 175.0625 16.75 175.0625 C16.75 174.4025 16.75 173.7425 16.75 173.0625 C17.95739046 171.951818 19.21734831 170.89784451 20.5 169.875 C24.38583528 166.58857548 26.55568317 163.63399339 28.75 159.0625 C28.75 158.7325 28.75 158.4025 28.75 158.0625 C27.62621948 158.08860352 27.62621948 158.08860352 26.47973633 158.11523438 C17.38025278 158.23149517 8.47076489 157.50714134 -0.5625 156.5625 C-1.99668504 156.41737703 -3.43092976 156.27284261 -4.86523438 156.12890625 C-8.32753458 155.78019161 -11.78896874 155.42361768 -15.25 155.0625 C-15.39115234 155.82401367 -15.53230469 156.58552734 -15.67773438 157.37011719 C-16.35292214 160.54672584 -17.48381073 163.3237044 -18.75 166.3125 C-19.41515625 167.89804687 -19.41515625 167.89804687 -20.09375 169.515625 C-21.25 172.0625 -21.25 172.0625 -22.25 173.0625 C-24.24958364 173.10330783 -26.25045254 173.10504356 -28.25 173.0625 C-37.25 156.0625 -37.25 156.0625 -37.25 150.0625 C-45.21770268 149.20618604 -53.11329602 148.85083351 -61.125 148.8125 C-62.22585937 148.791875 -63.32671875 148.77125 -64.4609375 148.75 C-65.523125 148.74484375 -66.5853125 148.7396875 -67.6796875 148.734375 C-69.10643799 148.72035645 -69.10643799 148.72035645 -70.56201172 148.70605469 C-73.79524539 149.1348032 -75.63027028 150.14447356 -78.25 152.0625 C-80.51100846 154.80070516 -80.51100846 154.80070516 -80.10546875 157.49609375 C-77.95023324 163.96180027 -70.97402298 168.73457966 -65.25 172.0625 C-64.26 172.3925 -63.27 172.7225 -62.25 173.0625 C-62.58 173.7225 -62.91 174.3825 -63.25 175.0625 C-69.28225939 175.16149561 -75.31404427 175.23402907 -81.34692383 175.28222656 C-83.39843993 175.30232199 -85.44989889 175.32960324 -87.5012207 175.36425781 C-90.45278025 175.41286669 -93.40358148 175.43548952 -96.35546875 175.453125 C-97.27023483 175.47377014 -98.18500092 175.49441528 -99.12748718 175.51568604 C-103.38833702 175.51718201 -105.65495889 175.42493795 -109.3684082 173.16308594 C-111.25 171.0625 -111.25 171.0625 -111.25 169.0625 C-111.91 168.7325 -112.57 168.4025 -113.25 168.0625 C-114.01172737 162.09563562 -112.46525754 158.98856792 -108.9765625 154.15234375 C-106.61903711 151.29877795 -104.2777166 149.19566397 -101.25 147.0625 C-100.59 147.0625 -99.93 147.0625 -99.25 147.0625 C-99.20348801 146.44900696 -99.15697601 145.83551392 -99.10905457 145.20343018 C-98.1906583 133.11635606 -97.25332788 121.03112287 -96.26467896 108.94958496 C-95.86346676 104.04361192 -95.47012626 99.13701438 -95.07837105 94.23027802 C-94.79129982 90.64019276 -94.50019461 87.05051655 -94.20092773 83.46142578 C-93.90404169 79.89839264 -93.61768909 76.33464517 -93.33815575 72.77021027 C-93.18183155 70.81023303 -93.01499279 68.85110309 -92.84773254 66.89202881 C-91.62363539 51.00540092 -92.29994326 36.69583901 -102.625 23.81640625 C-104.88305887 21.37922252 -107.33030327 19.25628506 -109.9296875 17.19140625 C-110.36539063 16.81886719 -110.80109375 16.44632813 -111.25 16.0625 C-111.25 15.7325 -111.25 15.4025 -111.25 15.0625 C-96.07 15.0625 -80.89 15.0625 -65.25 15.0625 C-63.105 19.80625 -60.96 24.55 -58.75 29.4375 C-58.07130859 30.9332959 -57.39261719 32.4290918 -56.69335938 33.97021484 C-56.16548828 35.14277832 -55.63761719 36.3153418 -55.09375 37.5234375 C-54.67270996 38.44733276 -54.67270996 38.44733276 -54.24316406 39.38989258 C-52.25 43.8343564 -52.25 43.8343564 -52.25 46.0625 C-51.59 46.0625 -50.93 46.0625 -50.25 46.0625 C-49.98316406 45.20140625 -49.71632812 44.3403125 -49.44140625 43.453125 C-45.80421602 33.10203936 -40.00898538 24.71922527 -32.25 17.0625 C-31.47785156 16.28003906 -30.70570313 15.49757813 -29.91015625 14.69140625 C-21.69889892 6.79954953 -11.71022252 -0.15408188 0 0 Z M45.29370117 25.07617188 C38.83861332 31.73923639 34.68380492 39.28281489 34.5 48.6875 C34.66581203 58.18023863 38.35125455 65.38918994 42.828125 73.52075195 C47.91712271 82.87629508 50.52717579 91.8526397 47.6875 102.375 C46.79697997 105.87771211 46.73033749 106.8323803 47.75 110.0625 C56.36767748 96.56147196 60.27135474 84.22689408 58.75 68.0625 C57.20740428 61.33041106 53.99282217 55.24385745 50.80078125 49.15625 C47.26150939 42.10402056 48.56257349 35.58012968 50.8828125 28.3984375 C51.95805733 25.50205729 53.31504121 22.79575484 54.75 20.0625 C54.75 19.4025 54.75 18.7425 54.75 18.0625 C50.9017965 18.0625 47.92444932 22.45362895 45.29370117 25.07617188 Z M-80.25 45.0625 C-81.0244529 49.27609514 -81.44576694 53.37411589 -81.63891602 57.65258789 C-81.69890274 58.94576431 -81.75888947 60.23894073 -81.82069397 61.57130432 C-81.88197912 62.97591229 -81.94304388 64.3805299 -82.00390625 65.78515625 C-82.06955292 67.2508577 -82.13538796 68.71655072 -82.20140076 70.18223572 C-82.33910685 73.25949014 -82.47406796 76.33685009 -82.60717773 79.41430664 C-82.77525855 83.29392119 -82.95078736 87.17315602 -83.12833595 91.05234718 C-83.8725442 107.39384885 -84.49571579 123.69925277 -84.25 140.0625 C-82.93 140.0625 -81.61 140.0625 -80.25 140.0625 C-76.50434551 132.34135498 -73.63881324 124.59285212 -71.1875 116.375 C-70.84533447 115.24030273 -70.50316895 114.10560547 -70.15063477 112.93652344 C-63.64999705 92.79992009 -63.64999705 92.79992009 -67.41015625 72.6015625 C-67.71948593 71.81099457 -68.02881561 71.02042664 -68.34751892 70.2059021 C-69.3303985 67.69758858 -70.32131248 65.19254057 -71.3125 62.6875 C-71.98295607 60.98067849 -72.65288367 59.27364929 -73.32226562 57.56640625 C-74.95873609 53.3960085 -76.60241643 49.22851915 -78.25 45.0625 C-78.91 45.0625 -79.57 45.0625 -80.25 45.0625 Z M28.75 52.0625 C28.75 55.0625 28.75 55.0625 28.75 55.0625 Z M27.75 64.0625 C25.38595529 69.83237184 23.58503723 74.97654912 25.75 81.0625 C28.16945952 85.28869877 31.14185605 88.71348484 34.9375 91.75 C39.63877606 95.61549365 41.05439301 99.08027988 41.75 105.0625 C42.74 104.5675 42.74 104.5675 43.75 104.0625 C44.24069013 95.3572936 43.52749236 88.04288272 37.75 81.1875 C36.25079234 79.57116674 34.71026499 78.02410223 33.125 76.4921875 C30.71313207 73.984393 30.52386091 71.80110907 30.1875 68.4375 C30.10371094 67.62023437 30.01992187 66.80296875 29.93359375 65.9609375 C29.87300781 65.33445312 29.81242188 64.70796875 29.75 64.0625 C29.09 64.0625 28.43 64.0625 27.75 64.0625 Z M18.75 76.0625 C14.56575992 84.94997712 10.66094162 93.90949648 6.9375 103 C6.41979074 104.26160237 5.90196675 105.52315766 5.3840332 106.78466797 C4.59989967 108.69464899 3.81600531 110.60472395 3.03337097 112.51531982 C1.35924992 116.59761821 -0.34330443 120.66697124 -2.0625 124.73046875 C-2.48684326 125.74181885 -2.91118652 126.75316895 -3.34838867 127.79516602 C-4.14077192 129.68283229 -4.94010785 131.5675994 -5.74731445 133.44897461 C-6.0949585 134.28307861 -6.44260254 135.11718262 -6.80078125 135.9765625 C-7.10669189 136.6979541 -7.41260254 137.4193457 -7.7277832 138.16259766 C-8.49353336 140.25915629 -8.49353336 140.25915629 -7.25 143.0625 C6.51635976 145.67704793 19.71835719 147.74883035 33.75 147.0625 C34.245 145.5775 34.245 145.5775 34.75 144.0625 C33.77850089 142.04953085 33.77850089 142.04953085 32.375 139.875 C29.89712892 135.23920274 29.29164762 131.11856246 29.125 125.9375 C28.83007893 115.97294577 28.83007893 115.97294577 23.62109375 107.84765625 C19.4886339 104.02905517 19.4886339 104.02905517 14.75 101.0625 C21.59817102 101.54891215 28.08042073 102.42243952 34.75 104.0625 C35.29324126 101.22557344 35.49707991 99.8034756 34.75 97.0625 C32.6874215 94.63412232 30.42413753 92.56045019 28.078125 90.40625 C24.7294183 87.03506876 22.85266755 83.2678351 20.75 79.0625 C20.09 78.0725 19.43 77.0825 18.75 76.0625 Z M64.75 82.0625 C64.71261719 83.01511719 64.67523438 83.96773438 64.63671875 84.94921875 C64.57097656 86.20347656 64.50523437 87.45773438 64.4375 88.75 C64.37949219 89.99136719 64.32148438 91.23273438 64.26171875 92.51171875 C63.36963972 98.70179387 60.29671472 101.68567382 55.8125 105.8125 C48.90508789 112.5688754 45.93051285 119.37634534 45.625 129 C45.66407791 132.43234341 46.07571632 135.69108159 46.75 139.0625 C47.41 139.0625 48.07 139.0625 48.75 139.0625 C48.82476562 138.4334375 48.89953125 137.804375 48.9765625 137.15625 C50.44504838 127.59669488 54.68427864 122.76688347 61.875 116.5625 C67.66165751 111.46431529 70.80164389 107.12486058 71.3125 99.3125 C71.08783429 93.04139623 68.43316572 87.63965161 65.75 82.0625 C65.42 82.0625 65.09 82.0625 64.75 82.0625 Z M23.75 104.0625 C24.15992188 104.52140625 24.56984375 104.9803125 24.9921875 105.453125 C25.53101563 106.06671875 26.06984375 106.6803125 26.625 107.3125 C27.42550781 108.21742188 27.42550781 108.21742188 28.2421875 109.140625 C31.61160592 113.43532412 31.90600877 116.15754676 31.625 121.625 C31.51256317 132.46391066 34.51472967 139.4728226 41.84765625 147.3828125 C43.74382464 149.27758729 43.74382464 149.27758729 46.75 150.0625 C46.46125 149.340625 46.1725 148.61875 45.875 147.875 C45.318125 146.4828125 45.318125 146.4828125 44.75 145.0625 C44.40171143 144.28753174 44.05342285 143.51256348 43.69458008 142.71411133 C42.691739 139.89895059 42.51036623 137.8005722 42.51171875 134.82421875 C42.49560547 133.83873047 42.47949219 132.85324219 42.46289062 131.83789062 C42.44606042 129.79107819 42.44071773 127.74413678 42.44726562 125.69726562 C42.31110626 118.95518099 41.35857864 114.16568116 36.75 109.0625 C34.28911342 107.12702067 34.28911342 107.12702067 31.625 106.0625 C30.77679688 105.670625 29.92859375 105.27875 29.0546875 104.875 C26.6857316 103.89625718 26.6857316 103.89625718 23.75 104.0625 Z M-56.25 105.0625 C-56.46914062 105.61035156 -56.68828125 106.15820312 -56.9140625 106.72265625 C-57.59850936 108.43377341 -58.28345927 110.14468938 -58.96875 111.85546875 C-59.90977428 114.21089842 -60.84705882 116.56764568 -61.78125 118.92578125 C-62.04470215 119.58892334 -62.3081543 120.25206543 -62.57958984 120.93530273 C-63.10214305 122.25066763 -63.62334433 123.56657055 -64.14306641 124.88305664 C-65.15297485 127.42115989 -66.14527406 129.87741831 -67.4921875 132.2578125 C-68.59517419 134.37960819 -68.59517419 134.37960819 -67.25 138.0625 C-59.33 137.7325 -51.41 137.4025 -43.25 137.0625 C-45.48796462 130.34860615 -47.80835444 123.73613012 -50.3125 117.125 C-50.66376953 116.18076172 -51.01503906 115.23652344 -51.37695312 114.26367188 C-51.88838867 112.91305664 -51.88838867 112.91305664 -52.41015625 111.53515625 C-52.71574463 110.72312744 -53.02133301 109.91109863 -53.33618164 109.07446289 C-54.18451977 106.8937153 -54.18451977 106.8937153 -56.25 105.0625 Z M41.75 107.0625 C42.75 109.0625 42.75 109.0625 42.75 109.0625 Z M61.75 125.0625 C60.45145279 126.13757629 59.16141639 127.22293736 57.875 128.3125 C57.15570313 128.91578125 56.43640625 129.5190625 55.6953125 130.140625 C53.19274476 132.61304132 51.96295912 134.61603738 51.44921875 138.10546875 C51.42139926 143.19643628 52.31810179 147.10623739 54.078125 151.86328125 C55.6111969 156.88141775 55.01048304 162.02056785 53.75 167.0625 C59.13428193 162.23521275 61.5425064 156.79738485 61.9375 149.6875 C61.91824662 146.11871467 61.91824662 146.11871467 60.75 143.125 C59.43620988 139.10151775 59.41358584 136.30131841 59.75 132.0625 C61.3125 129.1875 61.3125 129.1875 62.75 127.0625 C62.42 126.4025 62.09 125.7425 61.75 125.0625 Z " fill="#040303" transform="translate(180.25,67.9375)"/>
<path d="M0 0 C5.17493579 4.03859974 7.08936843 12.70836372 8 19 C7.4956079 22.8596961 5.86146142 25.62142257 4 29 C2.89681706 31.6012114 1.89014517 34.23840291 0.875 36.875 C-1.7074871 43.44015742 -1.7074871 43.44015742 -3.1796875 46.2578125 C-4.2129962 48.13142162 -4.2129962 48.13142162 -4 51 C-3.38406982 50.97905273 -2.76813965 50.95810547 -2.13354492 50.93652344 C15.7791741 50.41564194 33.10165717 51.8557981 50.65722656 55.56079102 C53.09417374 56.0921319 53.09417374 56.0921319 56 56 C57.64094942 56.26683835 59.27731572 56.5623508 60.91015625 56.875 C73.43194375 59.17969908 85.27095709 60.57859286 98 60 C97.71640113 61.4391134 97.42278601 62.87625518 97.125 64.3125 C96.88136719 65.51326172 96.88136719 65.51326172 96.6328125 66.73828125 C96 69 96 69 94 72 C91.10131836 72.34570312 91.10131836 72.34570312 87.40234375 72.28125 C86.73863266 72.27049438 86.07492157 72.25973877 85.39109802 72.24865723 C77.74768291 72.06758529 70.16070331 71.30454741 62.5625 70.5 C61.13743968 70.35478127 59.71230942 70.21024724 58.28710938 70.06640625 C54.85723525 69.7187782 51.42838395 69.36206508 48 69 C47.85884766 69.76151367 47.71769531 70.52302734 47.57226562 71.30761719 C46.89707786 74.48422584 45.76618927 77.2612044 44.5 80.25 C44.0565625 81.30703125 43.613125 82.3640625 43.15625 83.453125 C42 86 42 86 41 87 C39.00041636 87.04080783 36.99954746 87.04254356 35 87 C26 70 26 70 26 64 C18.03229732 63.14368604 10.13670398 62.78833351 2.125 62.75 C1.02414063 62.729375 -0.07671875 62.70875 -1.2109375 62.6875 C-2.273125 62.68234375 -3.3353125 62.6771875 -4.4296875 62.671875 C-5.38085449 62.6625293 -6.33202148 62.65318359 -7.31201172 62.64355469 C-10.54524539 63.0723032 -12.38027028 64.08197356 -15 66 C-17.26100846 68.73820516 -17.26100846 68.73820516 -16.85546875 71.43359375 C-14.70023324 77.89930027 -7.72402298 82.67207966 -2 86 C-1.01 86.33 -0.02 86.66 1 87 C0.67 87.66 0.34 88.32 0 89 C-6.03225939 89.09899561 -12.06404427 89.17152907 -18.09692383 89.21972656 C-20.14843993 89.23982199 -22.19989889 89.26710324 -24.2512207 89.30175781 C-27.20278025 89.35036669 -30.15358148 89.37298952 -33.10546875 89.390625 C-34.02023483 89.41127014 -34.93500092 89.43191528 -35.87748718 89.45318604 C-40.13833702 89.45468201 -42.40495889 89.36243795 -46.1184082 87.10058594 C-48 85 -48 85 -48 83 C-48.66 82.67 -49.32 82.34 -50 82 C-50.76172737 76.03313562 -49.21525754 72.92606792 -45.7265625 68.08984375 C-43.36903711 65.23627795 -41.0277166 63.13316397 -38 61 C-37.34 61 -36.68 61 -36 61 C-35.67 65.29 -35.34 69.58 -35 74 C-33.35 74.33 -31.7 74.66 -30 75 C-29.71125 74.401875 -29.4225 73.80375 -29.125 73.1875 C-28 71 -28 71 -26 68 C-25.34 68 -24.68 68 -24 68 C-23.855625 67.360625 -23.71125 66.72125 -23.5625 66.0625 C-23 64 -23 64 -22 63 C-21.76807135 61.48530552 -21.58784762 59.96245438 -21.4375 58.4375 C-21.35371094 57.61121094 -21.26992187 56.78492188 -21.18359375 55.93359375 C-21.09271484 54.97646484 -21.09271484 54.97646484 -21 54 C-19.68 54 -18.36 54 -17 54 C-16.8153418 53.4423999 -16.63068359 52.8847998 -16.44042969 52.31030273 C-15.19645306 48.5645421 -13.94489271 44.82289876 -12.640625 41.09765625 C-9.02483673 30.66138214 -6.05316021 20.10894254 -3.27246094 9.42016602 C-2.99047852 8.34178467 -2.70849609 7.26340332 -2.41796875 6.15234375 C-2.16813232 5.18288818 -1.9182959 4.21343262 -1.66088867 3.21459961 C-1 1 -1 1 0 0 Z " fill="#AC0411" transform="translate(117,154)"/>
<path d="M0 0 C0.33 0 0.66 0 1 0 C1.05607422 1.61455078 1.05607422 1.61455078 1.11328125 3.26171875 C1.61795742 15.35170226 2.11623903 26.76653047 9.5078125 36.82421875 C14.09933749 43.51919105 17.04050437 52.15716779 15.59375 60.28125 C14.10607229 65.45270108 11.59082231 69.31928359 8.20703125 73.46875 C6.89682342 74.80592697 6.89682342 74.80592697 7 76 C9.475 75.505 9.475 75.505 12 75 C10.94565932 77.98729859 9.88138776 80.15455534 7.9375 82.6875 C4.75219066 88.13335146 5 93.80988533 5 100 C15.14520949 97.71580912 25.10842282 95.23411567 35 92 C34.67 94.31 34.34 96.62 34 99 C31 100 31 100 28 99 C27.67 99.66 27.34 100.32 27 101 C26.01 101 25.02 101 24 101 C24 101.99 24 102.98 24 104 C21.37605694 104.83679277 18.75095616 105.66956942 16.125 106.5 C15.00544922 106.85771484 15.00544922 106.85771484 13.86328125 107.22265625 C8.2265625 109 8.2265625 109 6 109 C7.77240743 114.61262354 9.72137668 118.29487097 13.79296875 122.5546875 C15 124 15 124 15 126 C15.598125 126.28875 16.19625 126.5775 16.8125 126.875 C19 128 19 128 22 130 C22 130.66 22 131.32 22 132 C0.55 132 -20.9 132 -43 132 C-43 131.34 -43 130.68 -43 130 C-41.85079284 128.97616089 -40.65340952 128.00615653 -39.4375 127.0625 C-32.84006325 121.4494055 -27.36183408 113.68169226 -26 105 C-26.16683659 101.07934017 -26.98293393 99.02879899 -29 95.625 C-31.20463675 91.53180345 -31.39183124 87.55795202 -31.5625 83 C-31.82524607 73.20868801 -31.82524607 73.20868801 -36.87109375 65.078125 C-38.86307969 63.30909528 -40.9166834 61.65909285 -43 60 C-44.01461258 59.0148293 -45.02010228 58.01970606 -46 57 C-38.97408468 56.52096032 -31.33096572 57.83451714 -25 61 C-24.91007675 56.77360721 -25.20929415 54.87432409 -28.10546875 51.671875 C-29.76229282 50.12036843 -31.44832298 48.59937564 -33.1640625 47.11328125 C-33.76992187 46.41589844 -34.37578125 45.71851563 -35 45 C-34.7734375 42.73046875 -34.7734375 42.73046875 -34 41 C-31 41 -31 41 -28.75 43 C-27.82649097 43.99368448 -26.91071197 44.99457398 -26 46 C-25.40316406 46.61617187 -24.80632812 47.23234375 -24.19140625 47.8671875 C-20.22270861 52.10816586 -18.07467185 55.26841683 -17 61 C-16.76156728 54.77425679 -17.16487147 49.26400566 -18.7578125 43.2265625 C-19.051411 40.52735045 -18.40373258 39.27716619 -17 37 C-16.34 37 -15.68 37 -15 37 C-14.67 36.01 -14.34 35.02 -14 34 C-9.53141498 45.78988279 -9.44116387 53.77698815 -12 66 C-3.29106174 49.49352399 1.34357555 34.70251442 -4 16 C-3.01 15.34 -2.02 14.68 -1 14 C-0.41312216 10.65386488 -0.41312216 10.65386488 -0.3125 6.875 C-0.24675781 5.59367187 -0.18101562 4.31234375 -0.11328125 2.9921875 C-0.07589844 2.00476563 -0.03851563 1.01734375 0 0 Z M5 39 C4.96261719 39.95261719 4.92523438 40.90523437 4.88671875 41.88671875 C4.82097656 43.14097656 4.75523437 44.39523438 4.6875 45.6875 C4.62949219 46.92886719 4.57148438 48.17023438 4.51171875 49.44921875 C3.61963972 55.63929387 0.54671472 58.62317382 -3.9375 62.75 C-10.84491211 69.5063754 -13.81948715 76.31384534 -14.125 85.9375 C-14.08592209 89.36984341 -13.67428368 92.62858159 -13 96 C-12.34 96 -11.68 96 -11 96 C-10.92523438 95.3709375 -10.85046875 94.741875 -10.7734375 94.09375 C-9.30495162 84.53419488 -5.06572136 79.70438347 2.125 73.5 C7.91165751 68.40181529 11.05164389 64.06236058 11.5625 56.25 C11.33783429 49.97889623 8.68316572 44.57715161 6 39 C5.67 39 5.34 39 5 39 Z M-36 61 C-35.59007812 61.45890625 -35.18015625 61.9178125 -34.7578125 62.390625 C-34.21898437 63.00421875 -33.68015625 63.6178125 -33.125 64.25 C-32.32449219 65.15492188 -32.32449219 65.15492188 -31.5078125 66.078125 C-28.13839408 70.37282412 -27.84399123 73.09504676 -28.125 78.5625 C-28.23743683 89.40141066 -25.23527033 96.4103226 -17.90234375 104.3203125 C-16.00617536 106.21508729 -16.00617536 106.21508729 -13 107 C-13.28875 106.278125 -13.5775 105.55625 -13.875 104.8125 C-14.431875 103.4203125 -14.431875 103.4203125 -15 102 C-15.34828857 101.22503174 -15.69657715 100.45006348 -16.05541992 99.65161133 C-17.058261 96.83645059 -17.23963377 94.7380722 -17.23828125 91.76171875 C-17.25439453 90.77623047 -17.27050781 89.79074219 -17.28710938 88.77539062 C-17.30393958 86.72857819 -17.30928227 84.68163678 -17.30273438 82.63476562 C-17.43889374 75.89268099 -18.39142136 71.10318116 -23 66 C-25.46088658 64.06452067 -25.46088658 64.06452067 -28.125 63 C-28.97320312 62.608125 -29.82140625 62.21625 -30.6953125 61.8125 C-33.0642684 60.83375718 -33.0642684 60.83375718 -36 61 Z M-18 64 C-17 66 -17 66 -17 66 Z M2 82 C0.70145279 83.07507629 -0.58858361 84.16043736 -1.875 85.25 C-2.59429687 85.85328125 -3.31359375 86.4565625 -4.0546875 87.078125 C-6.55725524 89.55054132 -7.78704088 91.55353738 -8.30078125 95.04296875 C-8.32860074 100.13393628 -7.43189821 104.04373739 -5.671875 108.80078125 C-4.1388031 113.81891775 -4.73951696 118.95806785 -6 124 C-0.61571807 119.17271275 1.7925064 113.73488485 2.1875 106.625 C2.16824662 103.05621467 2.16824662 103.05621467 1 100.0625 C-0.31379012 96.03901775 -0.33641416 93.23881841 0 89 C1.5625 86.125 1.5625 86.125 3 84 C2.67 83.34 2.34 82.68 2 82 Z " fill="#070606" transform="translate(240,111)"/>
<path d="M0 0 C0.33 0 0.66 0 1 0 C1.05607422 1.61455078 1.05607422 1.61455078 1.11328125 3.26171875 C1.61795742 15.35170226 2.11623903 26.76653047 9.5078125 36.82421875 C14.09933749 43.51919105 17.04050437 52.15716779 15.59375 60.28125 C14.10607229 65.45270108 11.59082231 69.31928359 8.20703125 73.46875 C6.89682342 74.80592697 6.89682342 74.80592697 7 76 C9.475 75.505 9.475 75.505 12 75 C10.54955729 79.10958767 8.48889248 82.43258745 6 86 C4.5 85 4.5 85 3 83 C2.72654521 80.28153765 2.86508715 77.74322801 3 75 C1.68 75.99 0.36 76.98 -1 78 C-1.99 77.505 -1.99 77.505 -3 77 C-2.39671875 76.5153125 -1.7934375 76.030625 -1.171875 75.53125 C4.69316142 70.6121872 9.15643744 66.39880041 10.37109375 58.625 C10.70899994 52.07166788 8.79128547 46.85671504 6 41 C5.96261719 41.80824219 5.92523438 42.61648437 5.88671875 43.44921875 C5.82097656 44.51785156 5.75523437 45.58648437 5.6875 46.6875 C5.60048828 48.27111328 5.60048828 48.27111328 5.51171875 49.88671875 C4.54616977 55.76108928 1.32565014 58.82661972 -2.9375 62.75 C-9.6759926 69.34114947 -12.83776451 76.10111759 -13.09765625 85.55078125 C-13.08605469 86.79214844 -13.07445312 88.03351563 -13.0625 89.3125 C-13.05347656 90.56675781 -13.04445312 91.82101563 -13.03515625 93.11328125 C-13.02355469 94.06589844 -13.01195312 95.01851563 -13 96 C-12.34 96 -11.68 96 -11 96 C-11 97.65 -11 99.3 -11 101 C-13.475 101.495 -13.475 101.495 -16 102 C-17.61550881 98.43271899 -18.24734689 95.63380801 -18.2734375 91.7265625 C-18.2940625 90.7365625 -18.3146875 89.7465625 -18.3359375 88.7265625 C-18.36187973 86.66674937 -18.3801684 84.60682495 -18.390625 82.546875 C-18.53933486 76.18539768 -19.05559214 72.09542108 -23 67 C-25.49910807 65.15496883 -25.49910807 65.15496883 -28.25 64.0625 C-29.14203125 63.66160156 -30.0340625 63.26070312 -30.953125 62.84765625 C-31.62859375 62.56792969 -32.3040625 62.28820312 -33 62 C-33.495 62.495 -33.495 62.495 -34 63 C-33.57847656 63.48210937 -33.15695313 63.96421875 -32.72265625 64.4609375 C-31.90087891 65.40839844 -31.90087891 65.40839844 -31.0625 66.375 C-30.51722656 67.00148438 -29.97195312 67.62796875 -29.41015625 68.2734375 C-27.0470301 71.16679417 -26.88517079 72.96195534 -26.9375 76.625 C-26.94652344 77.44226563 -26.95554688 78.25953125 -26.96484375 79.1015625 C-26.97644531 79.72804688 -26.98804688 80.35453125 -27 81 C-27.33 80.01 -27.66 79.02 -28 78 C-29.485 77.505 -29.485 77.505 -31 77 C-31.88671875 74.9609375 -31.88671875 74.9609375 -32.6875 72.375 C-34.84301656 66.53505398 -38.18819843 63.72494701 -43 60 C-44.01578055 59.0160336 -45.02156426 58.02110895 -46 57 C-38.97408468 56.52096032 -31.33096572 57.83451714 -25 61 C-24.91007675 56.77360721 -25.20929415 54.87432409 -28.10546875 51.671875 C-29.76229282 50.12036843 -31.44832298 48.59937564 -33.1640625 47.11328125 C-33.76992187 46.41589844 -34.37578125 45.71851563 -35 45 C-34.7734375 42.73046875 -34.7734375 42.73046875 -34 41 C-31 41 -31 41 -28.75 43 C-27.82649097 43.99368448 -26.91071197 44.99457398 -26 46 C-25.40316406 46.61617187 -24.80632812 47.23234375 -24.19140625 47.8671875 C-20.22270861 52.10816586 -18.07467185 55.26841683 -17 61 C-16.76156728 54.77425679 -17.16487147 49.26400566 -18.7578125 43.2265625 C-19.051411 40.52735045 -18.40373258 39.27716619 -17 37 C-16.34 37 -15.68 37 -15 37 C-14.67 36.01 -14.34 35.02 -14 34 C-9.53141498 45.78988279 -9.44116387 53.77698815 -12 66 C-3.29106174 49.49352399 1.34357555 34.70251442 -4 16 C-3.01 15.34 -2.02 14.68 -1 14 C-0.41312216 10.65386488 -0.41312216 10.65386488 -0.3125 6.875 C-0.24675781 5.59367187 -0.18101562 4.31234375 -0.11328125 2.9921875 C-0.07589844 2.00476563 -0.03851563 1.01734375 0 0 Z M-18 64 C-17 66 -17 66 -17 66 Z " fill="#101010" transform="translate(240,111)"/>
<path d="M0 0 C3.89633716 0.54952751 7.79240281 1.10093816 11.68823242 1.65405273 C13.66115616 1.93376509 15.6342878 2.21200969 17.60742188 2.49023438 C19.47817383 2.75610352 19.47817383 2.75610352 21.38671875 3.02734375 C22.53358154 3.18968506 23.68044434 3.35202637 24.86206055 3.51928711 C26.82435011 3.81989772 28.78137207 4.16075339 30.72583008 4.56079102 C33.10489598 5.09481266 33.10489598 5.09481266 36 5 C37.64094942 5.26683835 39.27731572 5.5623508 40.91015625 5.875 C53.43194375 8.17969908 65.27095709 9.57859286 78 9 C77.71640113 10.4391134 77.42278601 11.87625518 77.125 13.3125 C76.96257812 14.11300781 76.80015625 14.91351563 76.6328125 15.73828125 C76 18 76 18 74 21 C71.10131836 21.34570312 71.10131836 21.34570312 67.40234375 21.28125 C66.73863266 21.27049438 66.07492157 21.25973877 65.39109802 21.24865723 C57.74768291 21.06758529 50.16070331 20.30454741 42.5625 19.5 C41.13743968 19.35478127 39.71230942 19.21024724 38.28710938 19.06640625 C34.85723525 18.7187782 31.42838395 18.36206508 28 18 C27.78827148 19.14227051 27.78827148 19.14227051 27.57226562 20.30761719 C26.89707786 23.48422584 25.76618927 26.2612044 24.5 29.25 C24.0565625 30.30703125 23.613125 31.3640625 23.15625 32.453125 C22 35 22 35 21 36 C19.00041636 36.04080783 16.99954746 36.04254356 15 36 C6 19 6 19 6 13 C2.37 12.67 -1.26 12.34 -5 12 C-5 11.67 -5 11.34 -5 11 C-1.7 11 1.6 11 5 11 C5.144375 9.865625 5.28875 8.73125 5.4375 7.5625 C6 4 6 4 7 3 C4.69 2.67 2.38 2.34 0 2 C0 1.34 0 0.68 0 0 Z " fill="#7F040B" transform="translate(137,205)"/>
<path d="M0 0 C0.89203125 0.00902344 1.7840625 0.01804687 2.703125 0.02734375 C3.37859375 0.03894531 4.0540625 0.05054687 4.75 0.0625 C3.99583149 4.30239856 2.23175132 6.13054057 -1.0234375 8.81640625 C-4.44988998 10.73401737 -7.73317454 10.64839133 -11.59375 10.796875 C-16.91904369 11.32940437 -20.62533476 14.24706291 -24.25 18.0625 C-24.91 18.0625 -25.57 18.0625 -26.25 18.0625 C-26.51296875 18.61292969 -26.7759375 19.16335937 -27.046875 19.73046875 C-28.40645326 22.36575519 -29.94820376 24.84808855 -31.5 27.375 C-37.68208633 37.92696025 -41.56930589 49.43583684 -45.25 61.0625 C-47.64073149 58.13060006 -49.09107307 55.34106712 -50.4375 51.8125 C-50.78167969 50.92046875 -51.12585938 50.0284375 -51.48046875 49.109375 C-51.73441406 48.43390625 -51.98835937 47.7584375 -52.25 47.0625 C-51.26 46.5675 -51.26 46.5675 -50.25 46.0625 C-49.55459709 44.07230925 -48.8932931 42.07014001 -48.25 40.0625 C-44.16443192 31.14441787 -39.21944514 23.94009083 -32.25 17.0625 C-31.47785156 16.28003906 -30.70570313 15.49757813 -29.91015625 14.69140625 C-21.69889892 6.79954953 -11.71022252 -0.15408188 0 0 Z " fill="#430204" transform="translate(180.25,67.9375)"/>
<path d="M0 0 C5.17493579 4.03859974 7.08936843 12.70836372 8 19 C7.4958491 22.85785039 5.86546675 25.62510988 4 29 C2.95049263 31.53450619 1.93078392 34.06905365 0.9375 36.625 C0.42409341 37.91052259 -0.09020348 39.19569004 -0.60546875 40.48046875 C-2.12028219 44.30356934 -3.58207727 48.14009922 -5 52 C-5.99 52 -6.98 52 -8 52 C-8 49.36 -8 46.72 -8 44 C-6.68 43.34 -5.36 42.68 -4 42 C-4 41.34 -4 40.68 -4 40 C-3.34 40 -2.68 40 -2 40 C-2.33 38.68 -2.66 37.36 -3 36 C-8.0802206 38.76621937 -8.0802206 38.76621937 -10.8515625 43.6015625 C-11.10679688 44.59929687 -11.36203125 45.59703125 -11.625 46.625 C-11.88539062 47.62789062 -12.14578125 48.63078125 -12.4140625 49.6640625 C-12.60742188 50.43492187 -12.80078125 51.20578125 -13 52 C-14.98 52.495 -14.98 52.495 -17 53 C-16.38125 51.44732422 -16.38125 51.44732422 -15.75 49.86328125 C-11.28892323 38.3635586 -7.83737508 26.69576669 -4.66601562 14.7902832 C-4.34697266 13.59363037 -4.02792969 12.39697754 -3.69921875 11.1640625 C-3.41908936 10.09623535 -3.13895996 9.0284082 -2.8503418 7.92822266 C-2.05691221 5.19598194 -1.10684059 2.61880721 0 0 Z " fill="#980812" transform="translate(117,154)"/>
<path d="M0 0 C6.29713793 -0.23322733 11.86668584 0.62925931 18 2 C19.66594791 2.33690718 21.3324282 2.67122474 23 3 C22.04637378 5.60597856 21.08732872 8.20973651 20.125 10.8125 C19.85558594 11.55048828 19.58617187 12.28847656 19.30859375 13.04882812 C19.04433594 13.76103516 18.78007812 14.47324219 18.5078125 15.20703125 C18.26691895 15.8616333 18.02602539 16.51623535 17.77783203 17.19067383 C17 19 17 19 15 22 C11.875 22.1875 11.875 22.1875 9 22 C5.18645873 14.93788653 2.59582767 7.57471026 0 0 Z " fill="#050201" transform="translate(143,219)"/>
<path d="M0 0 C0.61875 0.639375 1.2375 1.27875 1.875 1.9375 C4.53061079 4.57793587 7.25144153 7.14405783 10 9.6875 C11.2375 10.83798828 11.2375 10.83798828 12.5 12.01171875 C14.95375845 13.96322351 17.04369301 15.01280463 20 16 C19.67 16.66 19.34 17.32 19 18 C6.46 18 -6.08 18 -19 18 C-17.68 17.34 -16.36 16.68 -15 16 C-15 15.34 -15 14.68 -15 14 C-13.49609375 12.51953125 -13.49609375 12.51953125 -11.4375 10.8125 C-7.41324753 7.39798275 -3.67809995 3.78154651 0 0 Z " fill="#090404" transform="translate(98,225)"/>
<path d="M0 0 C1.046875 2.28515625 1.046875 2.28515625 1.75 5.0625 C1.99234375 5.98160156 2.2346875 6.90070313 2.484375 7.84765625 C2.65453125 8.55792969 2.8246875 9.26820313 3 10 C4.32 10 5.64 10 7 10 C7 11.98 7 13.96 7 16 C6.01 16.33 5.02 16.66 4 17 C4 17.66 4 18.32 4 19 C1.22578757 20.88646445 -0.13239454 20.99303187 -3.5625 20.8125 C-8.14384749 19.72963605 -8.14384749 19.72963605 -10 17 C-10 16.34 -10 15.68 -10 15 C-10.66 14.67 -11.32 14.34 -12 14 C-12.45543387 8.30707666 -11.68246386 5.3984985 -8 1 C-5.08386912 -1.09596907 -3.31667027 -1.42329551 0 0 Z " fill="#E4091C" transform="translate(79,222)"/>
<path d="M0 0 C7.61565057 6.52770049 10.70900305 15.08240963 11.90625 24.890625 C12.13678423 32.53667708 8.92133473 37.68770631 4.20703125 43.46875 C2.89682342 44.80592697 2.89682342 44.80592697 3 46 C5.475 45.505 5.475 45.505 8 45 C6.54955729 49.10958767 4.48889248 52.43258745 2 56 C0.5 55 0.5 55 -1 53 C-1.27345479 50.28153765 -1.13491285 47.74322801 -1 45 C-2.32 45.99 -3.64 46.98 -5 48 C-5.66 47.67 -6.32 47.34 -7 47 C-6.39671875 46.5153125 -5.7934375 46.030625 -5.171875 45.53125 C0.69316142 40.6121872 5.15643744 36.39880041 6.37109375 28.625 C6.70899994 22.07166788 4.79128547 16.85671504 2 11 C1.34 11 0.68 11 0 11 C0.04125 10.071875 0.0825 9.14375 0.125 8.1875 C0.27136339 4.84190281 0.27136339 4.84190281 -2 2 C-1.34 1.34 -0.68 0.68 0 0 Z " fill="#141414" transform="translate(244,141)"/>
<path d="M0 0 C0.94617188 0.144375 1.89234375 0.28875 2.8671875 0.4375 C13.29859885 1.93341558 23.47267757 2.21931922 34 2 C33.71640113 3.4391134 33.42278601 4.87625518 33.125 6.3125 C32.96257812 7.11300781 32.80015625 7.91351563 32.6328125 8.73828125 C32 11 32 11 30 14 C26.875 14.328125 26.875 14.328125 23 14.25 C22.33025146 14.23904297 21.66050293 14.22808594 20.97045898 14.21679688 C15.61459575 14.09867643 10.30979146 13.69964311 5 13 C5 12.67 5 12.34 5 12 C10.445 11.505 10.445 11.505 16 11 C15.34 9.68 14.68 8.36 14 7 C14.33 6.34 14.66 5.68 15 5 C13.7934375 5.0928125 13.7934375 5.0928125 12.5625 5.1875 C8.02351267 4.94860593 4.23098399 3.57956736 0 2 C0 1.34 0 0.68 0 0 Z " fill="#650209" transform="translate(181,212)"/>
<path d="M0 0 C0 2.64779693 -0.17195931 4.51587793 -1 7 C-1.99 7.495 -1.99 7.495 -3 8 C-3.99 7.67 -4.98 7.34 -6 7 C-6.33 7.66 -6.66 8.32 -7 9 C-7.99 9 -8.98 9 -10 9 C-10 9.99 -10 10.98 -10 12 C-12.97836003 13.00241388 -15.95781734 14.00152521 -18.9375 15 C-19.78763672 15.28617188 -20.63777344 15.57234375 -21.51367188 15.8671875 C-22.32255859 16.13789063 -23.13144531 16.40859375 -23.96484375 16.6875 C-24.7137085 16.93886719 -25.46257324 17.19023437 -26.23413086 17.44921875 C-28 18 -28 18 -29 18 C-29 14.7 -29 11.4 -29 8 C-27.91203125 7.75765625 -26.8240625 7.5153125 -25.703125 7.265625 C-16.9573626 5.28289314 -8.44586727 3.0593893 0 0 Z " fill="#2E0708" transform="translate(274,203)"/>
<path d="M0 0 C0.89203125 0.00902344 1.7840625 0.01804687 2.703125 0.02734375 C3.37859375 0.03894531 4.0540625 0.05054687 4.75 0.0625 C3.99583149 4.30239856 2.23175132 6.13054057 -1.0234375 8.81640625 C-4.45133756 10.73482751 -7.73037528 10.653886 -11.59375 10.78125 C-14.38454636 11.07674609 -15.89553899 11.7109736 -18.25 13.1875 C-19.24 13.80625 -20.23 14.425 -21.25 15.0625 C-22.24 14.7325 -23.23 14.4025 -24.25 14.0625 C-21.19699197 6.79343325 -16.33586397 4.16777568 -9.25 1.0625 C-6.11706575 0.03640332 -3.28798552 -0.04326297 0 0 Z " fill="#060101" transform="translate(180.25,67.9375)"/>
<path d="M0 0 C0.33 4.29 0.66 8.58 1 13 C2.65 13.33 4.3 13.66 6 14 C6.433125 13.1028125 6.433125 13.1028125 6.875 12.1875 C8 10 8 10 10 7 C10.66 7 11.32 7 12 7 C12.12375 6.360625 12.2475 5.72125 12.375 5.0625 C12.684375 4.0415625 12.684375 4.0415625 13 3 C13.66 2.67 14.32 2.34 15 2 C14.67 3.98 14.34 5.96 14 8 C15.32 7.01 16.64 6.02 18 5 C18.33 5.99 18.66 6.98 19 8 C15.41782958 13.52644055 10.0565614 17.87219478 5 22 C5 20.35 5 18.7 5 17 C3.68 17 2.36 17 1 17 C-1.18975773 13.71536341 -1.99806563 10.79303725 -3 7 C-4.98 7.33 -6.96 7.66 -9 8 C-7.70948419 4.12845257 -4.40863591 0 0 0 Z " fill="#C00C1C" transform="translate(81,215)"/>
<path d="M0 0 C3.55968882 2.73822217 4.55541527 6.641293 5.875 10.75 C6.25011719 11.78640625 6.25011719 11.78640625 6.6328125 12.84375 C7.89848948 16.75851832 8.27942178 19.16383933 6.6328125 23.015625 C5.82457031 24.49289063 5.82457031 24.49289063 5 26 C4.67 26 4.34 26 4 26 C4 22.04 4 18.08 4 14 C3.34 14 2.68 14 2 14 C1.67 14.66 1.34 15.32 1 16 C0.34 16 -0.32 16 -1 16 C-1.12375 16.639375 -1.2475 17.27875 -1.375 17.9375 C-1.58125 18.618125 -1.7875 19.29875 -2 20 C-2.66 20.33 -3.32 20.66 -4 21 C-4.60076256 23.27399754 -4.9563154 25.55130576 -5.33984375 27.87109375 C-6 30 -6 30 -9 32 C-7.18075143 24.58988995 -5.29328694 17.19752286 -3.375 9.8125 C-3.15690674 8.96260498 -2.93881348 8.11270996 -2.71411133 7.23706055 C-1.11510771 1.11510771 -1.11510771 1.11510771 0 0 Z " fill="#8C010A" transform="translate(117,154)"/>
<path d="M0 0 C0 3 0 3 -1 6 C-1 6.99 -1 7.98 -1 9 C-1.99 9.33 -2.98 9.66 -4 10 C-5.04169249 11.74678204 -5.04169249 11.74678204 -6 14 C-7.1966455 16.09006861 -8.4058711 18.17296559 -9.625 20.25 C-10.25664062 21.32765625 -10.88828125 22.4053125 -11.5390625 23.515625 C-12.26222656 24.74539062 -12.26222656 24.74539062 -13 26 C-14 23 -14 23 -13.0625 21 C-12.711875 20.34 -12.36125 19.68 -12 19 C-12 18.01 -12 17.02 -12 16 C-12.99 16 -13.98 16 -15 16 C-15.99 18.475 -15.99 18.475 -17 21 C-17.33 20.01 -17.66 19.02 -18 18 C-16.8125 16.203125 -16.8125 16.203125 -15 14.25 C-14.35417969 13.55003906 -13.70835937 12.85007812 -13.04296875 12.12890625 C-12.36878906 11.42636719 -11.69460937 10.72382812 -11 10 C-10.06607422 9.02353516 -10.06607422 9.02353516 -9.11328125 8.02734375 C-6.24055915 5.09230664 -3.40969385 2.31859182 0 0 Z " fill="#250505" transform="translate(158,76)"/>
<path d="M0 0 C0.33 0 0.66 0 1 0 C1.04898438 1.14597656 1.09796875 2.29195313 1.1484375 3.47265625 C1.22352801 5.00262535 1.29907306 6.53257218 1.375 8.0625 C1.4059375 8.81466797 1.436875 9.56683594 1.46875 10.34179688 C1.71954527 15.16960576 2.57327338 19.35163262 4 24 C4.125 27.4375 4.125 27.4375 4 30 C3.01 30 2.02 30 1 30 C0.67 31.98 0.34 33.96 0 36 C-0.33 36 -0.66 36 -1 36 C-1.13277344 34.97519531 -1.26554688 33.95039063 -1.40234375 32.89453125 C-1.58064088 31.5338426 -1.75903123 30.17316615 -1.9375 28.8125 C-2.02451172 28.13896484 -2.11152344 27.46542969 -2.20117188 26.77148438 C-2.67825477 23.14918834 -3.23012035 19.57196415 -4 16 C-3.01 15.34 -2.02 14.68 -1 14 C-0.41312216 10.65386488 -0.41312216 10.65386488 -0.3125 6.875 C-0.24675781 5.59367187 -0.18101562 4.31234375 -0.11328125 2.9921875 C-0.05720703 1.51105469 -0.05720703 1.51105469 0 0 Z " fill="#202020" transform="translate(240,111)"/>
<path d="M0 0 C0.94617188 0.144375 1.89234375 0.28875 2.8671875 0.4375 C13.29859885 1.93341558 23.47267757 2.21931922 34 2 C33.71640113 3.4391134 33.42278601 4.87625518 33.125 6.3125 C32.96257812 7.11300781 32.80015625 7.91351563 32.6328125 8.73828125 C32 11 32 11 30 14 C27.03 13.505 27.03 13.505 24 13 C24 12.67 24 12.34 24 12 C25.98 12 27.96 12 30 12 C30 9.69 30 7.38 30 5 C28.01432292 5.29296875 26.02864583 5.5859375 24.04296875 5.87890625 C22 6 22 6 19 5 C17.45778042 5.00556758 15.91548404 5.05164362 14.375 5.125 C9.10491783 5.20250121 4.84955696 3.96793616 0 2 C0 1.34 0 0.68 0 0 Z " fill="#570C12" transform="translate(181,212)"/>
<path d="M0 0 C0.33 0.66 0.66 1.32 1 2 C1.66 2 2.32 2 3 2 C2.38722388 4.96175123 1.74627478 6.38058783 0 9 C1.65 8.67 3.3 8.34 5 8 C3.54955729 12.10958767 1.48889248 15.43258745 -1 19 C-2.5 18 -2.5 18 -4 16 C-4.27345479 13.28153765 -4.13491285 10.74322801 -4 8 C-5.32 8.99 -6.64 9.98 -8 11 C-8.66 10.67 -9.32 10.34 -10 10 C-9.36191406 9.44570312 -8.72382813 8.89140625 -8.06640625 8.3203125 C-7.24011719 7.59585938 -6.41382813 6.87140625 -5.5625 6.125 C-4.73878906 5.40570313 -3.91507813 4.68640625 -3.06640625 3.9453125 C-0.94017845 2.16761255 -0.94017845 2.16761255 0 0 Z " fill="#1F1F1F" transform="translate(247,178)"/>
<path d="M0 0 C7.92 0 15.84 0 24 0 C24 0.66 24 1.32 24 2 C25.093125 1.95875 26.18625 1.9175 27.3125 1.875 C31 2 31 2 34 4 C32 5.33333333 30 6.66666667 28 8 C27.34 7.67 26.68 7.34 26 7 C26 6.01 26 5.02 26 4 C21.58937864 2.9742741 19.07369424 2.96315288 15 5 C15 4.01 15 3.02 15 2 C9.72 2 4.44 2 -1 2 C-0.67 1.34 -0.34 0.68 0 0 Z " fill="#98111A" transform="translate(113,205)"/>
<path d="M0 0 C0.66 0.33 1.32 0.66 2 1 C2.05394705 3.60444348 2.09364469 6.20776998 2.125 8.8125 C2.14175781 9.55048828 2.15851563 10.28847656 2.17578125 11.04882812 C2.21074628 14.91246426 2.19397555 16.70903668 0 20 C-0.66 20 -1.32 20 -2 20 C-3.87361339 15.31596653 -4.85296788 10.9987885 -4 6 C-2.87919398 3.69991111 -1.61359972 2.01699965 0 0 Z " fill="#121212" transform="translate(243,194)"/>
<path d="M0 0 C0.99 0.33 1.98 0.66 3 1 C3.12117187 1.78503906 3.24234375 2.57007813 3.3671875 3.37890625 C4.44556468 10.32565183 4.44556468 10.32565183 6.1875 17.125 C7 20 7 20 6 22 C3 21 3 21 1.3125 18.3125 C-1.00939511 12.55613504 -0.22779743 6.08303506 0 0 Z " fill="#151515" transform="translate(209,188)"/>
<path d="M0 0 C1.65 0 3.3 0 5 0 C5.33 0.99 5.66 1.98 6 3 C6.99 3.33 7.98 3.66 9 4 C9 4.66 9 5.32 9 6 C7.68 6 6.36 6 5 6 C4.67 7.65 4.34 9.3 4 11 C3.34 11 2.68 11 2 11 C1.34 11.66 0.68 12.32 0 13 C-0.99 13.33 -1.98 13.66 -3 14 C-2.09276387 9.31261335 -1.0452733 4.65806256 0 0 Z " fill="#C90312" transform="translate(97,210)"/>
<path d="M0 0 C0.99 0.99 1.98 1.98 3 3 C2.67 3.66 2.34 4.32 2 5 C1.34 4.67 0.68 4.34 0 4 C0.04125 4.969375 0.0825 5.93875 0.125 6.9375 C0.125 11.37744716 -0.5394008 15.79852328 -2 20 C-2.66 20.33 -3.32 20.66 -4 21 C-4.60076256 23.27399754 -4.9563154 25.55130576 -5.33984375 27.87109375 C-6 30 -6 30 -9 32 C-7.18075143 24.58988995 -5.29328694 17.19752286 -3.375 9.8125 C-3.15690674 8.96260498 -2.93881348 8.11270996 -2.71411133 7.23706055 C-1.11510771 1.11510771 -1.11510771 1.11510771 0 0 Z " fill="#8F272E" transform="translate(117,154)"/>
<path d="M0 0 C0 2 0 4 0 6 C1.32 5.01 2.64 4.02 4 3 C4.33 3.99 4.66 4.98 5 6 C3.63671875 8.0078125 3.63671875 8.0078125 1.6875 10.125 C1.05199219 10.82882813 0.41648437 11.53265625 -0.23828125 12.2578125 C-2 14 -2 14 -4 15 C-4.33 13.35 -4.66 11.7 -5 10 C-5.99 10.66 -6.98 11.32 -8 12 C-6.79618552 9.50638429 -5.54571278 7.31856917 -4 5 C-3.34 5 -2.68 5 -2 5 C-1.855625 4.360625 -1.71125 3.72125 -1.5625 3.0625 C-1 1 -1 1 0 0 Z " fill="#B60D1C" transform="translate(95,217)"/>
<path d="M0 0 C2.68756955 -0.02720824 5.37485798 -0.0469388 8.0625 -0.0625 C8.81466797 -0.07087891 9.56683594 -0.07925781 10.34179688 -0.08789062 C16.78390392 -0.11577853 22.81793218 0.39711446 28.9375 2.5625 C30.09572266 2.96662109 30.09572266 2.96662109 31.27734375 3.37890625 C32.13005859 3.68634766 32.13005859 3.68634766 33 4 C32.67 4.66 32.34 5.32 32 6 C31.2793335 5.88406494 30.55866699 5.76812988 29.81616211 5.64868164 C26.52337512 5.11932784 23.23043919 4.59090612 19.9375 4.0625 C18.80376953 3.88009766 17.67003906 3.69769531 16.50195312 3.50976562 C11.00682797 2.62862311 5.51324398 1.76017152 0 1 C0 0.67 0 0.34 0 0 Z " fill="#210101" transform="translate(138,205)"/>
<path d="M0 0 C4.04 4.04 4.04 4.04 5 7 C4.86384919 9.72825268 4.45066966 12.29598206 4 15 C1.525 14.01 1.525 14.01 -1 13 C-0.67 8.71 -0.34 4.42 0 0 Z " fill="#010101" transform="translate(240,140)"/>
<path d="M0 0 C0.33 0 0.66 0 1 0 C1.33 6.27 1.66 12.54 2 19 C2.66 17.02 3.32 15.04 4 13 C4.33 13 4.66 13 5 13 C5 14.98 5 16.96 5 19 C5.66 19 6.32 19 7 19 C7 20.65 7 22.3 7 24 C5.35 24.33 3.7 24.66 2 25 C-0.64381296 20.05586159 -0.22504028 15.13199976 -0.125 9.6875 C-0.11597656 8.75615234 -0.10695312 7.82480469 -0.09765625 6.86523438 C-0.07418263 4.5765564 -0.04134729 2.28841328 0 0 Z " fill="#424242" transform="translate(222,188)"/>
<path d="M0 0 C2.97 0.495 2.97 0.495 6 1 C4.50708815 4.80013925 2.37622677 6.74918216 -1 9 C-2.32 9 -3.64 9 -5 9 C-5.33 9.99 -5.66 10.98 -6 12 C-6.33 11.01 -6.66 10.02 -7 9 C-6.34 8.01 -5.68 7.02 -5 6 C-4.67 6.33 -4.34 6.66 -4 7 C-2.68 4.69 -1.36 2.38 0 0 Z " fill="#383838" transform="translate(232,170)"/>
<path d="M0 0 C0 3.41321235 -0.66867466 4.39472885 -2.5 7.1875 C-2.9640625 7.90292969 -3.428125 8.61835938 -3.90625 9.35546875 C-4.2671875 9.89816406 -4.628125 10.44085938 -5 11 C-7.9765625 8.3359375 -7.9765625 8.3359375 -8.1875 5.3125 C-8.125625 4.549375 -8.06375 3.78625 -8 3 C-5.36 2.01 -2.72 1.02 0 0 Z " fill="#252525" transform="translate(251,186)"/>
<path d="M0 0 C0 3.96 0 7.92 0 12 C-2 9 -2 9 -3 7 C-4.98 7.33 -6.96 7.66 -9 8 C-7.70948419 4.12845257 -4.40863591 0 0 0 Z " fill="#C51C2C" transform="translate(81,215)"/>
<path d="M0 0 C0.33 0 0.66 0 1 0 C1.21278058 4.46839215 0.59138085 7.82262526 -1 12 C-1.99 12 -2.98 12 -4 12 C-4 9.36 -4 6.72 -4 4 C-2.68 3.34 -1.36 2.68 0 2 C0 1.34 0 0.68 0 0 Z " fill="#A81321" transform="translate(113,194)"/>
<path d="M0 0 C0.66 0.33 1.32 0.66 2 1 C1.95875 1.9075 1.9175 2.815 1.875 3.75 C1.99531556 6.8782046 2.3914708 8.38614006 4 11 C4.99 11 5.98 11 7 11 C6.34 12.98 5.68 14.96 5 17 C2.60926851 14.06810006 1.15892693 11.27856712 -0.1875 7.75 C-0.53167969 6.85796875 -0.87585938 5.9659375 -1.23046875 5.046875 C-1.48441406 4.37140625 -1.73835937 3.6959375 -2 3 C-1.34 2.67 -0.68 2.34 0 2 C0 1.34 0 0.68 0 0 Z " fill="#420C10" transform="translate(130,112)"/>
<path d="M0 0 C0 2.64779693 -0.17195931 4.51587793 -1 7 C-1.99 7.495 -1.99 7.495 -3 8 C-3.99 7.34 -4.98 6.68 -6 6 C-6 5.34 -6 4.68 -6 4 C-6.99 3.67 -7.98 3.34 -9 3 C-6.03 2.01 -3.06 1.02 0 0 Z " fill="#2D1E1E" transform="translate(274,203)"/>
<path d="M0 0 C0.99 0.33 1.98 0.66 3 1 C3 4.3 3 7.6 3 11 C2.01 11 1.02 11 0 11 C0 7.37 0 3.74 0 0 Z " fill="#010101" transform="translate(209,188)"/>
<path d="M0 0 C1.625 2.5 1.625 2.5 3 5 C-0.3 5.33 -3.6 5.66 -7 6 C-4 0 -4 0 0 0 Z " fill="#180606" transform="translate(69,237)"/>
<path d="M0 0 C0.33 0 0.66 0 1 0 C1.04898438 0.85464844 1.09796875 1.70929688 1.1484375 2.58984375 C1.22320312 3.69457031 1.29796875 4.79929688 1.375 5.9375 C1.44460937 7.03964844 1.51421875 8.14179688 1.5859375 9.27734375 C1.72257812 10.17582031 1.85921875 11.07429687 2 12 C2.66 12.33 3.32 12.66 4 13 C4 12.01 4 11.02 4 10 C5.32 10.33 6.64 10.66 8 11 C6.68 12.32 5.36 13.64 4 15 C2.68 14.34 1.36 13.68 0 13 C0 8.71 0 4.42 0 0 Z " fill="#340001" transform="translate(81,215)"/>
<path d="M0 0 C1.06396981 4.25587923 0.77540332 5.67464485 -0.4375 9.75 C-0.72496094 10.73484375 -1.01242188 11.7196875 -1.30859375 12.734375 C-1.65083984 13.85585937 -1.65083984 13.85585937 -2 15 C-3.32 15.33 -4.64 15.66 -6 16 C-4.02 10.72 -2.04 5.44 0 0 Z " fill="#A21C2A" transform="translate(106,191)"/>
<path d="M0 0 C1.65 1.65 3.3 3.3 5 5 C4.01 5.33 3.02 5.66 2 6 C1.67 7.65 1.34 9.3 1 11 C0.67 11 0.34 11 0 11 C0.04125 10.071875 0.0825 9.14375 0.125 8.1875 C0.27136339 4.84190281 0.27136339 4.84190281 -2 2 C-1.34 1.34 -0.68 0.68 0 0 Z " fill="#323232" transform="translate(244,141)"/>
<path d="M0 0 C2 1 2 1 3.3125 4.625 C4.4218352 9.31638704 3.2526214 11.84131433 1 16 C0.67 16 0.34 16 0 16 C0 10.72 0 5.44 0 0 Z " fill="#812931" transform="translate(121,164)"/>
<path d="M0 0 C1.65 0 3.3 0 5 0 C5 1.65 5 3.3 5 5 C4.01 5 3.02 5 2 5 C1.67 5.66 1.34 6.32 1 7 C0.34 6.67 -0.32 6.34 -1 6 C-0.67 4.02 -0.34 2.04 0 0 Z " fill="#BB0713" transform="translate(97,210)"/>
<path d="M0 0 C0.66 0 1.32 0 2 0 C2.29296875 6.0546875 2.29296875 6.0546875 2 8 C1.01 8.66 0.02 9.32 -1 10 C-1.125 3.375 -1.125 3.375 0 0 Z " fill="#240302" transform="translate(94,209)"/>
<path d="M0 0 C0.33 0.66 0.66 1.32 1 2 C3.32156597 2.40729228 5.6568787 2.74438677 8 3 C7.67 3.66 7.34 4.32 7 5 C4.03 5 1.06 5 -2 5 C-1.34 3.35 -0.68 1.7 0 0 Z " fill="#970108" transform="translate(143,212)"/>
<path d="M0 0 C0.33 0 0.66 0 1 0 C0.25 6.75 0.25 6.75 -2 9 C-2.66 7.68 -3.32 6.36 -4 5 C-2.69254251 3.31295807 -1.35827971 1.64639965 0 0 Z " fill="#101010" transform="translate(230,176)"/>
<path d="M0 0 C2.31 0.33 4.62 0.66 7 1 C7 1.99 7 2.98 7 4 C4.69 3.67 2.38 3.34 0 3 C0 2.01 0 1.02 0 0 Z " fill="#282828" transform="translate(202,169)"/>
<path d="M0 0 C0.99 0.99 1.98 1.98 3 3 C2.67 3.66 2.34 4.32 2 5 C1.34 4.67 0.68 4.34 0 4 C0 6.31 0 8.62 0 11 C-1.125 9.4375 -1.125 9.4375 -2 7 C-1.125 3.25 -1.125 3.25 0 0 Z " fill="#741821" transform="translate(117,154)"/>
<path d="M0 0 C0.66 0 1.32 0 2 0 C3 3 3 3 1.5625 6.1875 C0.7890625 7.5796875 0.7890625 7.5796875 0 9 C-0.33 9 -0.66 9 -1 9 C-1.09765625 2.84765625 -1.09765625 2.84765625 -1 1 C-0.67 0.67 -0.34 0.34 0 0 Z " fill="#38060A" transform="translate(141,102)"/>
<path d="M0 0 C0 3.57575896 -1.08840607 5.05295935 -3 8 C-4.32 7.67 -5.64 7.34 -7 7 C-4.69 4.69 -2.38 2.38 0 0 Z " fill="#290100" transform="translate(98,225)"/>
<path d="M0 0 C-2.55068845 2.35448165 -3.71017358 2.98327924 -7.25 3.1875 C-8.1575 3.125625 -9.065 3.06375 -10 3 C-10 2.34 -10 1.68 -10 1 C-8.71073008 0.63720544 -7.41846728 0.28503302 -6.125 -0.0625 C-5.40570313 -0.25972656 -4.68640625 -0.45695313 -3.9453125 -0.66015625 C-2 -1 -2 -1 0 0 Z " fill="#553A3A" transform="translate(260,209)"/>
<path d="M0 0 C1.98 0.99 1.98 0.99 4 2 C4 3.65 4 5.3 4 7 C2 5.75 2 5.75 0 4 C0 2.68 0 1.36 0 0 Z " fill="#7C040E" transform="translate(117,158)"/>
<path d="M0 0 C0.33 0 0.66 0 1 0 C1 1.98 1 3.96 1 6 C-0.32 5.67 -1.64 5.34 -3 5 C-1.125 1.125 -1.125 1.125 0 0 Z " fill="#D90313" transform="translate(90,226)"/>
<path d="" fill="#000100" transform="translate(0,0)"/>
</svg>
